<svg width="50" height="50" viewBox="0 0 50 50" fill="none" xmlns="http://www.w3.org/2000/svg">
<circle cx="25" cy="25" r="25" fill="url(#paint0_linear_394_302)"/>
<path d="M28.148 22.88C30.236 23.312 31.832 24.176 32.936 25.472C34.064 26.744 34.628 28.292 34.628 30.116C34.628 31.604 34.22 32.984 33.404 34.256C32.612 35.528 31.388 36.56 29.732 37.352C28.1 38.12 26.072 38.504 23.648 38.504C21.872 38.504 20.108 38.288 18.356 37.856C16.628 37.424 15.128 36.812 13.856 36.02L16.448 30.656C17.432 31.328 18.536 31.844 19.76 32.204C21.008 32.564 22.232 32.744 23.432 32.744C24.656 32.744 25.628 32.516 26.348 32.06C27.068 31.604 27.428 30.956 27.428 30.116C27.428 28.484 26.144 27.668 23.576 27.668H20.588V23.168L25.088 18.308H15.152V12.8H33.368V17.264L28.148 22.88Z" fill="white"/>
<defs>
<linearGradient id="paint0_linear_394_302" x1="-133.75" y1="-100.833" x2="112.917" y2="93.75" gradientUnits="userSpaceOnUse">
<stop stop-color="#1ABDF2"/>
<stop offset="1" stop-color="#754672"/>
</linearGradient>
</defs>
</svg>
