<svg width="40" height="40" viewBox="0 0 40 40" fill="none" xmlns="http://www.w3.org/2000/svg">
<path d="M35.0855 32.9277C18.0709 40.7849 7.5143 34.2132 0.753545 30.2181C0.335423 29.9666 -0.375385 30.2772 0.241449 30.9645C2.4931 33.6138 9.87276 40 19.5053 40C29.1445 40 34.879 34.8981 35.5964 34.0059C36.3089 33.1221 35.8034 32.6361 35.0855 32.9277ZM39.8637 30.3668C39.4084 29.7895 37.0855 29.6838 35.6245 29.8558C34.1636 30.0277 31.9654 30.8926 32.1562 31.4136C32.2543 31.6089 32.4543 31.5213 33.4594 31.4337C34.4675 31.3361 37.2908 30.9918 37.8791 31.7366C38.4674 32.4814 36.9779 36.0684 36.7063 36.6456C36.443 37.2229 36.8069 37.3719 37.3012 36.9875C37.7888 36.603 38.6715 35.6076 39.2639 34.1988C39.8521 32.7827 40.2111 30.8086 39.8637 30.3668Z" fill="#FF9900"/>
<path fill-rule="evenodd" clip-rule="evenodd" d="M23.647 16.8951C23.647 18.9567 23.7008 20.6761 22.6269 22.5067C21.76 23.9955 20.3873 24.911 18.8535 24.911C16.7591 24.911 15.5416 23.3628 15.5416 21.0782C15.5416 16.5677 19.7063 15.749 23.6486 15.749L23.647 16.8951ZM29.1443 29.7935C28.7837 30.106 28.2625 30.1285 27.8559 29.92C26.0456 28.4614 25.7235 27.7841 24.7267 26.3921C21.7352 29.3544 19.6181 30.2402 15.737 30.2402C11.1505 30.2402 7.57617 27.4937 7.57617 21.9933C7.57617 17.6989 9.97727 14.774 13.3901 13.3451C16.3509 12.0797 20.485 11.8563 23.6449 11.5064V10.8235C23.6449 9.56534 23.7447 8.07697 22.9854 6.99031C22.3181 6.01534 21.0447 5.61362 19.9249 5.61362C17.8463 5.61362 15.992 6.64805 15.5366 8.79162C15.4443 9.26806 15.0837 9.73687 14.5932 9.75896L9.30082 9.20861C8.85579 9.11139 8.36522 8.7619 8.48776 8.09946C9.7086 1.87563 15.4994 0 20.6841 0C23.3382 0 26.8048 0.682922 28.8988 2.63488C31.5528 5.03876 31.2999 8.24649 31.2999 11.7374V19.9839C31.2999 22.4625 32.3584 23.5488 33.3553 24.8889C33.708 25.365 33.785 25.9382 33.34 26.2949C32.228 27.1956 30.2492 28.8704 29.1588 29.808L29.1434 29.7931" fill="black"/>
<path d="M35.0855 32.9277C18.0709 40.7849 7.5143 34.2132 0.753545 30.2181C0.335423 29.9666 -0.375385 30.2772 0.241449 30.9645C2.4931 33.6138 9.87276 40 19.5053 40C29.1445 40 34.879 34.8981 35.5964 34.0059C36.3089 33.1221 35.8034 32.6361 35.0855 32.9277ZM39.8637 30.3668C39.4084 29.7895 37.0855 29.6838 35.6245 29.8558C34.1636 30.0277 31.9654 30.8926 32.1562 31.4136C32.2543 31.6089 32.4543 31.5213 33.4594 31.4337C34.4675 31.3361 37.2908 30.9918 37.8791 31.7366C38.4674 32.4814 36.9779 36.0684 36.7063 36.6456C36.443 37.2229 36.8069 37.3719 37.3012 36.9875C37.7888 36.603 38.6715 35.6076 39.2639 34.1988C39.8521 32.7827 40.2111 30.8086 39.8637 30.3668Z" fill="#FF9900"/>
<path fill-rule="evenodd" clip-rule="evenodd" d="M23.647 16.8951C23.647 18.9567 23.7008 20.6761 22.6269 22.5067C21.76 23.9955 20.3873 24.911 18.8535 24.911C16.7591 24.911 15.5416 23.3628 15.5416 21.0782C15.5416 16.5677 19.7063 15.749 23.6486 15.749L23.647 16.8951ZM29.1443 29.7935C28.7837 30.106 28.2625 30.1285 27.8559 29.92C26.0456 28.4614 25.7235 27.7841 24.7267 26.3921C21.7352 29.3544 19.6181 30.2402 15.737 30.2402C11.1505 30.2402 7.57617 27.4937 7.57617 21.9933C7.57617 17.6989 9.97727 14.774 13.3901 13.3451C16.3509 12.0797 20.485 11.8563 23.6449 11.5064V10.8235C23.6449 9.56534 23.7447 8.07697 22.9854 6.99031C22.3181 6.01534 21.0447 5.61362 19.9249 5.61362C17.8463 5.61362 15.992 6.64805 15.5366 8.79162C15.4443 9.26806 15.0837 9.73687 14.5932 9.75896L9.30082 9.20861C8.85579 9.11139 8.36522 8.7619 8.48776 8.09946C9.7086 1.87563 15.4994 0 20.6841 0C23.3382 0 26.8048 0.682922 28.8988 2.63488C31.5528 5.03876 31.2999 8.24649 31.2999 11.7374V19.9839C31.2999 22.4625 32.3584 23.5488 33.3553 24.8889C33.708 25.365 33.785 25.9382 33.34 26.2949C32.228 27.1956 30.2492 28.8704 29.1588 29.808L29.1434 29.7931" fill="black"/>
</svg>
