<svg width="317" height="57" viewBox="0 0 317 57" fill="none" xmlns="http://www.w3.org/2000/svg">
<rect x="0.75" y="0.75" width="315.5" height="55.5" rx="17.25" stroke="#2B1F46" stroke-width="1.5"/>
<path d="M277 26.5C277 33.4036 282.596 39 289.5 39C296.404 39 302 33.4036 302 26.5C302 19.5964 296.404 14 289.5 14C282.596 14 277 19.5964 277 26.5Z" stroke="#1ABDF2" stroke-width="2" stroke-miterlimit="10" stroke-linecap="round" stroke-linejoin="round"/>
<path d="M285.088 24.9253L289.5 29.3253L293.913 24.9253" stroke="#1ABDF2" stroke-width="2" stroke-linecap="round" stroke-linejoin="round"/>
<path d="M259.54 13.8V39H255.976V16.932H250.288V13.8H259.54Z" fill="white"/>
<path d="M20.784 16.932H12.144V13.8H32.988V16.932H24.348V39H20.784V16.932ZM51.6802 29.568C51.6802 29.832 51.6562 30.18 51.6082 30.612H36.1282C36.3442 32.292 37.0762 33.648 38.3242 34.68C39.5962 35.688 41.1682 36.192 43.0402 36.192C45.3202 36.192 47.1562 35.424 48.5482 33.888L50.4562 36.12C49.5922 37.128 48.5122 37.896 47.2162 38.424C45.9442 38.952 44.5162 39.216 42.9322 39.216C40.9162 39.216 39.1282 38.808 37.5682 37.992C36.0082 37.152 34.7962 35.988 33.9322 34.5C33.0922 33.012 32.6722 31.332 32.6722 29.46C32.6722 27.612 33.0802 25.944 33.8962 24.456C34.7362 22.968 35.8762 21.816 37.3162 21C38.7802 20.16 40.4242 19.74 42.2482 19.74C44.0722 19.74 45.6922 20.16 47.1082 21C48.5482 21.816 49.6642 22.968 50.4562 24.456C51.2722 25.944 51.6802 27.648 51.6802 29.568ZM42.2482 22.656C40.5922 22.656 39.2002 23.16 38.0722 24.168C36.9682 25.176 36.3202 26.496 36.1282 28.128H48.3682C48.1762 26.52 47.5162 25.212 46.3882 24.204C45.2842 23.172 43.9042 22.656 42.2482 22.656ZM80.3471 19.74C82.7471 19.74 84.6431 20.436 86.0351 21.828C87.4511 23.22 88.1591 25.284 88.1591 28.02V39H84.7031V28.416C84.7031 26.568 84.2711 25.176 83.4071 24.24C82.5671 23.304 81.3551 22.836 79.7711 22.836C78.0191 22.836 76.6271 23.388 75.5951 24.492C74.5631 25.572 74.0471 27.132 74.0471 29.172V39H70.5911V28.416C70.5911 26.568 70.1591 25.176 69.2951 24.24C68.4551 23.304 67.2431 22.836 65.6591 22.836C63.9071 22.836 62.5151 23.388 61.4831 24.492C60.4511 25.572 59.9351 27.132 59.9351 29.172V39H56.4791V19.92H59.7911V22.764C60.4871 21.78 61.3991 21.036 62.5271 20.532C63.6551 20.004 64.9391 19.74 66.3791 19.74C67.8671 19.74 69.1871 20.04 70.3391 20.64C71.4911 21.24 72.3791 22.116 73.0031 23.268C73.7231 22.164 74.7191 21.3 75.9911 20.676C77.2871 20.052 78.7391 19.74 80.3471 19.74ZM104.634 19.74C106.482 19.74 108.138 20.148 109.602 20.964C111.066 21.78 112.206 22.92 113.022 24.384C113.862 25.848 114.282 27.54 114.282 29.46C114.282 31.38 113.862 33.084 113.022 34.572C112.206 36.036 111.066 37.176 109.602 37.992C108.138 38.808 106.482 39.216 104.634 39.216C103.266 39.216 102.006 38.952 100.854 38.424C99.7262 37.896 98.7662 37.128 97.9742 36.12V45.984H94.5182V19.92H97.8302V22.944C98.5982 21.888 99.5702 21.096 100.746 20.568C101.922 20.016 103.218 19.74 104.634 19.74ZM104.346 36.192C105.57 36.192 106.662 35.916 107.622 35.364C108.606 34.788 109.374 33.996 109.926 32.988C110.502 31.956 110.79 30.78 110.79 29.46C110.79 28.14 110.502 26.976 109.926 25.968C109.374 24.936 108.606 24.144 107.622 23.592C106.662 23.04 105.57 22.764 104.346 22.764C103.146 22.764 102.054 23.052 101.07 23.628C100.11 24.18 99.3422 24.96 98.7662 25.968C98.2142 26.976 97.9382 28.14 97.9382 29.46C97.9382 30.78 98.2142 31.956 98.7662 32.988C99.3182 33.996 100.086 34.788 101.07 35.364C102.054 35.916 103.146 36.192 104.346 36.192ZM127.229 39.216C125.333 39.216 123.629 38.796 122.117 37.956C120.605 37.116 119.417 35.964 118.553 34.5C117.713 33.012 117.293 31.332 117.293 29.46C117.293 27.588 117.713 25.92 118.553 24.456C119.417 22.968 120.605 21.816 122.117 21C123.629 20.16 125.333 19.74 127.229 19.74C129.125 19.74 130.817 20.16 132.305 21C133.817 21.816 134.993 22.968 135.833 24.456C136.697 25.92 137.129 27.588 137.129 29.46C137.129 31.332 136.697 33.012 135.833 34.5C134.993 35.964 133.817 37.116 132.305 37.956C130.817 38.796 129.125 39.216 127.229 39.216ZM127.229 36.192C128.453 36.192 129.545 35.916 130.505 35.364C131.489 34.788 132.257 33.996 132.809 32.988C133.361 31.956 133.637 30.78 133.637 29.46C133.637 28.14 133.361 26.976 132.809 25.968C132.257 24.936 131.489 24.144 130.505 23.592C129.545 23.04 128.453 22.764 127.229 22.764C126.005 22.764 124.901 23.04 123.917 23.592C122.957 24.144 122.189 24.936 121.613 25.968C121.061 26.976 120.785 28.14 120.785 29.46C120.785 30.78 121.061 31.956 121.613 32.988C122.189 33.996 122.957 34.788 123.917 35.364C124.901 35.916 126.005 36.192 127.229 36.192ZM145.221 23.124C145.821 22.02 146.709 21.18 147.885 20.604C149.061 20.028 150.489 19.74 152.169 19.74V23.088C151.977 23.064 151.713 23.052 151.377 23.052C149.505 23.052 148.029 23.616 146.949 24.744C145.893 25.848 145.365 27.432 145.365 29.496V39H141.909V19.92H145.221V23.124ZM163.341 19.74C165.981 19.74 167.997 20.388 169.389 21.684C170.805 22.98 171.513 24.912 171.513 27.48V39H168.237V36.48C167.661 37.368 166.833 38.052 165.753 38.532C164.697 38.988 163.437 39.216 161.973 39.216C159.837 39.216 158.121 38.7 156.825 37.668C155.553 36.636 154.917 35.28 154.917 33.6C154.917 31.92 155.529 30.576 156.753 29.568C157.977 28.536 159.921 28.02 162.585 28.02H168.057V27.336C168.057 25.848 167.625 24.708 166.761 23.916C165.897 23.124 164.625 22.728 162.945 22.728C161.817 22.728 160.713 22.92 159.633 23.304C158.553 23.664 157.641 24.156 156.897 24.78L155.457 22.188C156.441 21.396 157.617 20.796 158.985 20.388C160.353 19.956 161.805 19.74 163.341 19.74ZM162.549 36.552C163.869 36.552 165.009 36.264 165.969 35.688C166.929 35.088 167.625 34.248 168.057 33.168V30.504H162.729C159.801 30.504 158.337 31.488 158.337 33.456C158.337 34.416 158.709 35.172 159.453 35.724C160.197 36.276 161.229 36.552 162.549 36.552ZM196.014 12.288V39H192.702V35.976C191.934 37.032 190.962 37.836 189.786 38.388C188.61 38.94 187.314 39.216 185.898 39.216C184.05 39.216 182.394 38.808 180.93 37.992C179.466 37.176 178.314 36.036 177.474 34.572C176.658 33.084 176.25 31.38 176.25 29.46C176.25 27.54 176.658 25.848 177.474 24.384C178.314 22.92 179.466 21.78 180.93 20.964C182.394 20.148 184.05 19.74 185.898 19.74C187.266 19.74 188.526 20.004 189.678 20.532C190.83 21.036 191.79 21.792 192.558 22.8V12.288H196.014ZM186.186 36.192C187.386 36.192 188.478 35.916 189.462 35.364C190.446 34.788 191.214 33.996 191.766 32.988C192.318 31.956 192.594 30.78 192.594 29.46C192.594 28.14 192.318 26.976 191.766 25.968C191.214 24.936 190.446 24.144 189.462 23.592C188.478 23.04 187.386 22.764 186.186 22.764C184.962 22.764 183.858 23.04 182.874 23.592C181.914 24.144 181.146 24.936 180.57 25.968C180.018 26.976 179.742 28.14 179.742 29.46C179.742 30.78 180.018 31.956 180.57 32.988C181.146 33.996 181.914 34.788 182.874 35.364C183.858 35.916 184.962 36.192 186.186 36.192ZM209.501 19.74C212.141 19.74 214.157 20.388 215.549 21.684C216.965 22.98 217.673 24.912 217.673 27.48V39H214.397V36.48C213.821 37.368 212.993 38.052 211.913 38.532C210.857 38.988 209.597 39.216 208.133 39.216C205.997 39.216 204.281 38.7 202.985 37.668C201.713 36.636 201.077 35.28 201.077 33.6C201.077 31.92 201.689 30.576 202.913 29.568C204.137 28.536 206.081 28.02 208.745 28.02H214.217V27.336C214.217 25.848 213.785 24.708 212.921 23.916C212.057 23.124 210.785 22.728 209.105 22.728C207.977 22.728 206.873 22.92 205.793 23.304C204.713 23.664 203.801 24.156 203.057 24.78L201.617 22.188C202.601 21.396 203.777 20.796 205.145 20.388C206.513 19.956 207.965 19.74 209.501 19.74ZM208.709 36.552C210.029 36.552 211.169 36.264 212.129 35.688C213.089 35.088 213.785 34.248 214.217 33.168V30.504H208.889C205.961 30.504 204.497 31.488 204.497 33.456C204.497 34.416 204.869 35.172 205.613 35.724C206.357 36.276 207.389 36.552 208.709 36.552Z" fill="white"/>
</svg>
