<svg width="112" height="45" viewBox="0 0 112 45" fill="none" xmlns="http://www.w3.org/2000/svg">
<g filter="url(#filter0_d_425_260)">
<rect x="2" y="1" width="104" height="37" rx="14" stroke="#1ABDF2" stroke-width="2" shape-rendering="crispEdges"/>
</g>
<path d="M47.358 21.904C47.918 22.0813 48.3567 22.38 48.674 22.8C48.9913 23.2107 49.15 23.7193 49.15 24.326C49.15 25.1847 48.814 25.8473 48.142 26.314C47.4793 26.7713 46.5087 27 45.23 27H40.162V17.2H44.95C46.1447 17.2 47.0593 17.4287 47.694 17.886C48.338 18.3433 48.66 18.964 48.66 19.748C48.66 20.224 48.5433 20.6487 48.31 21.022C48.086 21.3953 47.7687 21.6893 47.358 21.904ZM42.416 18.908V21.218H44.67C45.23 21.218 45.6547 21.12 45.944 20.924C46.2333 20.728 46.378 20.4387 46.378 20.056C46.378 19.6733 46.2333 19.3887 45.944 19.202C45.6547 19.006 45.23 18.908 44.67 18.908H42.416ZM45.062 25.292C45.6593 25.292 46.1073 25.194 46.406 24.998C46.714 24.802 46.868 24.4987 46.868 24.088C46.868 23.276 46.266 22.87 45.062 22.87H42.416V25.292H45.062ZM57.3211 24.9H52.7711L51.9031 27H49.5791L53.9471 17.2H56.1871L60.5691 27H58.1891L57.3211 24.9ZM56.6071 23.178L55.0531 19.426L53.4991 23.178H56.6071ZM61.5858 17.2H63.8538V27H61.5858V17.2ZM72.3536 27L69.9876 23.598L67.6636 27H65.0596L68.6856 22.016L65.2416 17.2H67.8176L70.0716 20.378L72.2836 17.2H74.7336L71.3176 21.932L74.9716 27H72.3536ZM82.1219 24.9H77.5719L76.7039 27H74.3799L78.7479 17.2H80.9879L85.3699 27H82.9899L82.1219 24.9ZM81.4079 23.178L79.8539 19.426L78.2999 23.178H81.4079ZM92.6306 27L90.7406 24.27H90.6286H88.6546V27H86.3866V17.2H90.6286C91.4966 17.2 92.2479 17.3447 92.8826 17.634C93.5266 17.9233 94.0213 18.334 94.3666 18.866C94.7119 19.398 94.8846 20.028 94.8846 20.756C94.8846 21.484 94.7073 22.114 94.3526 22.646C94.0073 23.1687 93.5126 23.57 92.8686 23.85L95.0666 27H92.6306ZM92.5886 20.756C92.5886 20.2053 92.4113 19.7853 92.0566 19.496C91.7019 19.1973 91.1839 19.048 90.5026 19.048H88.6546V22.464H90.5026C91.1839 22.464 91.7019 22.3147 92.0566 22.016C92.4113 21.7173 92.5886 21.2973 92.5886 20.756Z" fill="white"/>
<path d="M27.1387 13.7845C31.3006 14.1343 33 16.2215 33 20.7907V20.9374C33 25.9805 30.9306 28 25.763 28H18.237C13.0694 28 11 25.9805 11 20.9374V20.7907C11 16.2553 12.6763 14.1681 16.7688 13.7958" stroke="#1ABDF2" stroke-width="1.5" stroke-linecap="round" stroke-linejoin="round"/>
<path d="M22.0059 6V20.5314" stroke="#1ABDF2" stroke-width="1.5" stroke-linecap="round" stroke-linejoin="round"/>
<path d="M25.8785 18.0154L22.0056 21.7949L18.1328 18.0154" stroke="#1ABDF2" stroke-width="1.5" stroke-linecap="round" stroke-linejoin="round"/>
<defs>
<filter id="filter0_d_425_260" x="0" y="0" width="112" height="45" filterUnits="userSpaceOnUse" color-interpolation-filters="sRGB">
<feFlood flood-opacity="0" result="BackgroundImageFix"/>
<feColorMatrix in="SourceAlpha" type="matrix" values="0 0 0 0 0 0 0 0 0 0 0 0 0 0 0 0 0 0 127 0" result="hardAlpha"/>
<feOffset dx="2" dy="3"/>
<feGaussianBlur stdDeviation="1.5"/>
<feComposite in2="hardAlpha" operator="out"/>
<feColorMatrix type="matrix" values="0 0 0 0 0 0 0 0 0 0 0 0 0 0 0 0 0 0 0.25 0"/>
<feBlend mode="normal" in2="BackgroundImageFix" result="effect1_dropShadow_425_260"/>
<feBlend mode="normal" in="SourceGraphic" in2="effect1_dropShadow_425_260" result="shape"/>
</filter>
</defs>
</svg>
