<svg width="66" height="66" viewBox="0 0 66 66" fill="none" xmlns="http://www.w3.org/2000/svg">
<g filter="url(#filter0_d_425_787)">
<rect x="2.75" y="2.75" width="55.5894" height="55.5894" rx="17.25" fill="url(#paint0_linear_425_787)" stroke="#2B1F46" stroke-width="1.5"/>
<path fill-rule="evenodd" clip-rule="evenodd" d="M21.2 24.2857L22.2043 37.2044C22.3281 38.7955 23.2693 39.9994 24.39 40H35.61C36.731 40.0002 37.6729 38.7961 37.7968 37.2044L38.8 24.2857M19 24.2857H41H19ZM22.3 24.2857L24.5 18L22.3 24.2857ZM37.7 24.2857L35.5 18L37.7 24.2857ZM26.7 33.7143V30.5714V33.7143ZM30 33.7143V30.5714V33.7143ZM33.3 33.7143V30.5714V33.7143Z" fill="url(#paint1_linear_425_787)"/>
<path d="M21.9477 24.2276C21.9156 23.8146 21.5548 23.5059 21.1418 23.538C20.7289 23.5701 20.4201 23.9309 20.4522 24.3438L21.9477 24.2276ZM22.2043 37.2044L21.4565 37.2626L21.4565 37.2626L22.2043 37.2044ZM24.39 40L24.3895 40.75H24.39V40ZM35.61 40L35.6101 39.25H35.61V40ZM37.7968 37.2044L38.5445 37.2626L38.5445 37.2625L37.7968 37.2044ZM39.5477 24.3438C39.5798 23.9308 39.271 23.57 38.858 23.538C38.445 23.5059 38.0843 23.8147 38.0522 24.2276L39.5477 24.3438ZM19 23.5357C18.5858 23.5357 18.25 23.8715 18.25 24.2857C18.25 24.6999 18.5858 25.0357 19 25.0357V23.5357ZM41 25.0357C41.4142 25.0357 41.75 24.6999 41.75 24.2857C41.75 23.8715 41.4142 23.5357 41 23.5357V25.0357ZM21.5921 24.038C21.4553 24.4289 21.6613 24.8568 22.0522 24.9936C22.4432 25.1304 22.8711 24.9244 23.0079 24.5335L21.5921 24.038ZM25.2079 18.2478C25.3447 17.8568 25.1387 17.4289 24.7478 17.2921C24.3568 17.1553 23.9289 17.3613 23.7921 17.7522L25.2079 18.2478ZM36.9921 24.5335C37.1289 24.9244 37.5568 25.1304 37.9478 24.9936C38.3387 24.8568 38.5447 24.4289 38.4079 24.038L36.9921 24.5335ZM36.2079 17.7522C36.0711 17.3613 35.6432 17.1553 35.2522 17.2921C34.8613 17.4289 34.6553 17.8568 34.7921 18.2478L36.2079 17.7522ZM25.95 33.7143C25.95 34.1285 26.2858 34.4643 26.7 34.4643C27.1142 34.4643 27.45 34.1285 27.45 33.7143H25.95ZM27.45 30.5714C27.45 30.1572 27.1142 29.8214 26.7 29.8214C26.2858 29.8214 25.95 30.1572 25.95 30.5714H27.45ZM29.25 33.7143C29.25 34.1285 29.5857 34.4643 30 34.4643C30.4142 34.4643 30.75 34.1285 30.75 33.7143H29.25ZM30.75 30.5714C30.75 30.1572 30.4142 29.8214 30 29.8214C29.5857 29.8214 29.25 30.1572 29.25 30.5714H30.75ZM32.55 33.7143C32.55 34.1285 32.8858 34.4643 33.3 34.4643C33.7142 34.4643 34.05 34.1285 34.05 33.7143H32.55ZM34.05 30.5714C34.05 30.1572 33.7142 29.8214 33.3 29.8214C32.8858 29.8214 32.55 30.1572 32.55 30.5714H34.05ZM20.4522 24.3438L21.4565 37.2626L22.952 37.1463L21.9477 24.2276L20.4522 24.3438ZM21.4565 37.2626C21.5282 38.1839 21.8384 39.0286 22.3325 39.6606C22.8266 40.2926 23.5422 40.7495 24.3895 40.75L24.3904 39.25C24.1171 39.2499 23.8018 39.1046 23.5141 38.7367C23.2265 38.3688 23.0041 37.8161 22.952 37.1462L21.4565 37.2626ZM24.39 40.75H35.61V39.25H24.39V40.75ZM35.6098 40.75C36.4576 40.7501 37.1736 40.2933 37.668 39.6613C38.1624 39.0292 38.4728 38.1842 38.5445 37.2626L37.049 37.1462C36.9969 37.8163 36.7743 38.3692 36.4866 38.7371C36.1988 39.1049 35.8834 39.25 35.6101 39.25L35.6098 40.75ZM38.5445 37.2625L39.5477 24.3438L38.0522 24.2276L37.049 37.1464L38.5445 37.2625ZM19 25.0357H41V23.5357H19V25.0357ZM23.0079 24.5335L25.2079 18.2478L23.7921 17.7522L21.5921 24.038L23.0079 24.5335ZM38.4079 24.038L36.2079 17.7522L34.7921 18.2478L36.9921 24.5335L38.4079 24.038ZM27.45 33.7143V30.5714H25.95V33.7143H27.45ZM30.75 33.7143V30.5714H29.25V33.7143H30.75ZM34.05 33.7143V30.5714H32.55V33.7143H34.05Z" fill="#1ABDF2"/>
</g>
<defs>
<filter id="filter0_d_425_787" x="0" y="0" width="65.0898" height="65.0894" filterUnits="userSpaceOnUse" color-interpolation-filters="sRGB">
<feFlood flood-opacity="0" result="BackgroundImageFix"/>
<feColorMatrix in="SourceAlpha" type="matrix" values="0 0 0 0 0 0 0 0 0 0 0 0 0 0 0 0 0 0 127 0" result="hardAlpha"/>
<feOffset dx="2" dy="2"/>
<feGaussianBlur stdDeviation="2"/>
<feComposite in2="hardAlpha" operator="out"/>
<feColorMatrix type="matrix" values="0 0 0 0 0.101961 0 0 0 0 0.741176 0 0 0 0 0.94902 0 0 0 1 0"/>
<feBlend mode="normal" in2="BackgroundImageFix" result="effect1_dropShadow_425_787"/>
<feBlend mode="normal" in="SourceGraphic" in2="effect1_dropShadow_425_787" result="shape"/>
</filter>
<linearGradient id="paint0_linear_425_787" x1="201" y1="221" x2="-107.5" y2="-119.5" gradientUnits="userSpaceOnUse">
<stop stop-color="#18102E"/>
<stop offset="0.436687" stop-color="#41284C"/>
<stop offset="1" stop-color="#754672"/>
</linearGradient>
<linearGradient id="paint1_linear_425_787" x1="95.6868" y1="102.394" x2="-23.197" y2="-28.8213" gradientUnits="userSpaceOnUse">
<stop stop-color="#18102E"/>
<stop offset="0.436687" stop-color="#41284C"/>
<stop offset="1" stop-color="#754672"/>
</linearGradient>
</defs>
</svg>
