<svg width="33" height="18" viewBox="0 0 33 18" fill="none" xmlns="http://www.w3.org/2000/svg">
<path d="M22.71 6.2V16H21.324V7.418H19.112V6.2H22.71ZM31.7136 6.2V7.152L27.7516 16H26.2676L30.1456 7.418H25.6656V9.168H24.3216V6.2H31.7136Z" fill="white"/>
<path d="M4.97632 13.5938L7.39329 15.5188C7.70515 15.8396 8.40685 16 8.87466 16H11.8374C12.773 16 13.7866 15.2782 14.0205 14.3157L15.8917 8.46071C16.2815 7.33783 15.5798 6.37537 14.4103 6.37537H11.2916C10.8238 6.37537 10.434 5.97434 10.512 5.41291L10.9018 2.84634C11.0577 2.12449 10.5899 1.32244 9.88822 1.08182C9.26449 0.841209 8.48482 1.16203 8.17296 1.64326L4.97632 6.53578" stroke="#1ABDF2" stroke-width="1.5" stroke-miterlimit="10"/>
<path d="M1 13.5939V5.73374C1 4.61087 1.4678 4.20984 2.55933 4.20984H3.339C4.43054 4.20984 4.89834 4.61087 4.89834 5.73374V13.5939C4.89834 14.7167 4.43054 15.1178 3.339 15.1178H2.55933C1.4678 15.1178 1 14.7167 1 13.5939Z" stroke="#1ABDF2" stroke-width="1.5" stroke-linecap="round" stroke-linejoin="round"/>
</svg>
