<svg width="40" height="40" viewBox="0 0 40 40" fill="none" xmlns="http://www.w3.org/2000/svg">
<path d="M14.1666 31.6666H13.3333C6.66659 31.6666 3.33325 30 3.33325 21.6666V13.3333C3.33325 6.66665 6.66659 3.33331 13.3333 3.33331H26.6666C33.3333 3.33331 36.6666 6.66665 36.6666 13.3333V21.6666C36.6666 28.3333 33.3333 31.6666 26.6666 31.6666H25.8333C25.3166 31.6666 24.8166 31.9166 24.4999 32.3333L21.9999 35.6666C20.8999 37.1333 19.0999 37.1333 17.9999 35.6666L15.4999 32.3333C15.2333 31.9666 14.6166 31.6666 14.1666 31.6666Z" stroke="#1ABDF2" stroke-width="3" stroke-miterlimit="10" stroke-linecap="round" stroke-linejoin="round"/>
<path d="M26.6606 18.3333H26.6756" stroke="#1ABDF2" stroke-width="3" stroke-linecap="round" stroke-linejoin="round"/>
<path d="M19.9924 18.3333H20.0074" stroke="#1ABDF2" stroke-width="3" stroke-linecap="round" stroke-linejoin="round"/>
<path d="M13.3242 18.3333H13.3391" stroke="#1ABDF2" stroke-width="3" stroke-linecap="round" stroke-linejoin="round"/>
</svg>
