<svg width="42" height="42" viewBox="0 0 42 42" fill="none" xmlns="http://www.w3.org/2000/svg">
<path d="M33.9399 30.6588L34.7199 36.9784C34.9199 38.6384 33.1399 39.7983 31.7199 38.9383L23.3398 33.9585C22.4198 33.9585 21.5198 33.8986 20.6398 33.7786C22.1198 32.0387 22.9998 29.8387 22.9998 27.4588C22.9998 21.7791 18.0798 17.1794 11.9997 17.1794C9.67973 17.1794 7.53972 17.8393 5.75971 18.9992C5.6997 18.4992 5.67969 17.9993 5.67969 17.4793C5.67969 8.37966 13.5798 1 23.3398 1C33.0999 1 41 8.37966 41 17.4793C41 22.879 38.2199 27.6589 33.9399 30.6588Z" stroke="#1ABDF2" stroke-width="1.5" stroke-linecap="round" stroke-linejoin="round"/>
<path d="M23.0002 27.4589C23.0002 29.8388 22.1202 32.0388 20.6402 33.7787C18.6601 36.1786 15.5201 37.7185 12.0001 37.7185L6.78004 40.8183C5.90004 41.3583 4.78002 40.6184 4.90002 39.5984L5.40003 35.6586C2.72001 33.7987 1 30.8188 1 27.4589C1 23.9391 2.88002 20.8392 5.76005 18.9993C7.54006 17.8394 9.68007 17.1794 12.0001 17.1794C18.0801 17.1794 23.0002 21.7792 23.0002 27.4589Z" stroke="#1ABDF2" stroke-width="1.5" stroke-linecap="round" stroke-linejoin="round"/>
</svg>
