<svg width="22" height="20" viewBox="0 0 22 20" fill="none" xmlns="http://www.w3.org/2000/svg">
<g opacity="0.8">
<path d="M1.83301 1.66669H3.42801C4.41801 1.66669 5.19718 2.44169 5.11468 3.33335L4.35384 11.6333C4.22551 12.9917 5.408 14.1583 6.91133 14.1583H16.6738C17.9938 14.1583 19.1488 13.175 19.2497 11.9834L19.7447 5.73336C19.8547 4.35002 18.6997 3.22502 17.1688 3.22502H5.33468" stroke="#1ABDF2" stroke-width="1.5" stroke-miterlimit="10" stroke-linecap="round" stroke-linejoin="round"/>
<path d="M14.8958 18.3333C15.5287 18.3333 16.0417 17.867 16.0417 17.2917C16.0417 16.7164 15.5287 16.25 14.8958 16.25C14.263 16.25 13.75 16.7164 13.75 17.2917C13.75 17.867 14.263 18.3333 14.8958 18.3333Z" stroke="#1ABDF2" stroke-width="1.5" stroke-miterlimit="10" stroke-linecap="round" stroke-linejoin="round"/>
<path d="M7.56283 18.3333C8.19565 18.3333 8.70866 17.867 8.70866 17.2917C8.70866 16.7164 8.19565 16.25 7.56283 16.25C6.93 16.25 6.41699 16.7164 6.41699 17.2917C6.41699 17.867 6.93 18.3333 7.56283 18.3333Z" stroke="#1ABDF2" stroke-width="1.5" stroke-miterlimit="10" stroke-linecap="round" stroke-linejoin="round"/>
<path d="M8.25 6.66669H19.25" stroke="#1ABDF2" stroke-width="1.5" stroke-miterlimit="10" stroke-linecap="round" stroke-linejoin="round"/>
</g>
</svg>
