<svg width="22" height="20" viewBox="0 0 22 20" fill="none" xmlns="http://www.w3.org/2000/svg">
<g opacity="0.8">
<path d="M1.83398 1.66666H3.42899C4.41899 1.66666 5.19815 2.44166 5.11565 3.33332L4.35482 11.6333C4.22648 12.9916 5.40898 14.1583 6.91231 14.1583H16.6748C17.9948 14.1583 19.1498 13.175 19.2507 11.9833L19.7456 5.73333C19.8556 4.34999 18.7006 3.22499 17.1698 3.22499H5.33566" stroke="white" stroke-width="1.5" stroke-miterlimit="10" stroke-linecap="round" stroke-linejoin="round"/>
<path d="M14.8958 18.3333C15.5287 18.3333 16.0417 17.867 16.0417 17.2917C16.0417 16.7164 15.5287 16.25 14.8958 16.25C14.263 16.25 13.75 16.7164 13.75 17.2917C13.75 17.867 14.263 18.3333 14.8958 18.3333Z" stroke="white" stroke-width="1.5" stroke-miterlimit="10" stroke-linecap="round" stroke-linejoin="round"/>
<path d="M7.56185 18.3333C8.19468 18.3333 8.70768 17.867 8.70768 17.2917C8.70768 16.7164 8.19468 16.25 7.56185 16.25C6.92902 16.25 6.41602 16.7164 6.41602 17.2917C6.41602 17.867 6.92902 18.3333 7.56185 18.3333Z" stroke="white" stroke-width="1.5" stroke-miterlimit="10" stroke-linecap="round" stroke-linejoin="round"/>
<path d="M8.25 6.66666H19.25" stroke="white" stroke-width="1.5" stroke-miterlimit="10" stroke-linecap="round" stroke-linejoin="round"/>
</g>
</svg>
