<svg width="30" height="30" viewBox="0 0 30 30" fill="none" xmlns="http://www.w3.org/2000/svg">
<g opacity="0.7">
<path d="M11.25 18.2974C12.0267 18.2974 12.6562 17.6678 12.6562 16.8911C12.6562 16.1145 12.0267 15.4849 11.25 15.4849C10.4733 15.4849 9.84375 16.1145 9.84375 16.8911C9.84375 17.6678 10.4733 18.2974 11.25 18.2974Z" fill="#1ABDF2"/>
<path d="M18.7511 18.2974C19.5277 18.2974 20.1573 17.6678 20.1573 16.8911C20.1573 16.1145 19.5277 15.4849 18.7511 15.4849C17.9744 15.4849 17.3448 16.1145 17.3448 16.8911C17.3448 17.6678 17.9744 18.2974 18.7511 18.2974Z" fill="#1ABDF2"/>
<path d="M8.71851 9.37898C10.7508 8.74203 12.87 8.42573 14.9998 8.44148C17.1295 8.42573 19.2487 8.74203 21.281 9.37898" stroke="#1ABDF2" stroke-width="2" stroke-linecap="round" stroke-linejoin="round"/>
<path d="M21.281 20.6294C19.2487 21.2663 17.1295 21.5826 14.9998 21.5669C12.87 21.5826 10.7508 21.2663 8.71851 20.6294" stroke="#1ABDF2" stroke-width="2" stroke-linecap="round" stroke-linejoin="round"/>
<path d="M18.1647 21.3467L19.5826 24.1592C19.6739 24.351 19.8291 24.505 20.0215 24.5948C20.214 24.6847 20.4317 24.7046 20.6373 24.6514C23.5084 23.9483 25.9928 22.7295 27.7975 21.1592C27.9335 21.0391 28.0323 20.8826 28.0822 20.7082C28.132 20.5337 28.1308 20.3486 28.0787 20.1748L24.1061 6.90919C24.0674 6.77343 23.9974 6.64863 23.9018 6.54484C23.8061 6.44104 23.6875 6.36113 23.5553 6.31153C22.4329 5.85107 21.2722 5.4903 20.0865 5.2334C19.8587 5.1835 19.6205 5.21924 19.4173 5.3338C19.2141 5.44836 19.0602 5.63371 18.985 5.8545L18.0592 8.65528" stroke="#1ABDF2" stroke-width="2" stroke-linecap="round" stroke-linejoin="round"/>
<path d="M11.8369 21.3467L10.4189 24.1592C10.3276 24.351 10.1725 24.505 9.98 24.5948C9.78754 24.6847 9.5698 24.7046 9.3642 24.6514C6.4931 23.9483 4.00873 22.7295 2.20404 21.1592C2.06798 21.0391 1.96918 20.8826 1.91933 20.7082C1.86949 20.5337 1.87069 20.3486 1.92279 20.1748L5.89545 6.90919C5.93411 6.77343 6.00408 6.64863 6.09974 6.54484C6.1954 6.44104 6.31408 6.36113 6.44623 6.31153C7.5686 5.85107 8.72933 5.4903 9.91498 5.2334C10.1428 5.1835 10.3811 5.21924 10.5842 5.3338C10.7874 5.44836 10.9413 5.63371 11.0165 5.8545L11.9423 8.65528" stroke="#1ABDF2" stroke-width="2" stroke-linecap="round" stroke-linejoin="round"/>
<path d="M11.25 18.2974C12.0267 18.2974 12.6562 17.6678 12.6562 16.8911C12.6562 16.1145 12.0267 15.4849 11.25 15.4849C10.4733 15.4849 9.84375 16.1145 9.84375 16.8911C9.84375 17.6678 10.4733 18.2974 11.25 18.2974Z" fill="#1ABDF2"/>
<path d="M18.7511 18.2974C19.5277 18.2974 20.1573 17.6678 20.1573 16.8911C20.1573 16.1145 19.5277 15.4849 18.7511 15.4849C17.9744 15.4849 17.3448 16.1145 17.3448 16.8911C17.3448 17.6678 17.9744 18.2974 18.7511 18.2974Z" fill="#1ABDF2"/>
<path d="M8.71851 9.37898C10.7508 8.74203 12.87 8.42573 14.9998 8.44148C17.1295 8.42573 19.2487 8.74203 21.281 9.37898" stroke="#1ABDF2" stroke-width="2" stroke-linecap="round" stroke-linejoin="round"/>
<path d="M21.281 20.6294C19.2487 21.2663 17.1295 21.5826 14.9998 21.5669C12.87 21.5826 10.7508 21.2663 8.71851 20.6294" stroke="#1ABDF2" stroke-width="2" stroke-linecap="round" stroke-linejoin="round"/>
<path d="M18.1647 21.3467L19.5826 24.1592C19.6739 24.351 19.8291 24.505 20.0215 24.5948C20.214 24.6847 20.4317 24.7046 20.6373 24.6514C23.5084 23.9483 25.9928 22.7295 27.7975 21.1592C27.9335 21.0391 28.0323 20.8826 28.0822 20.7082C28.132 20.5337 28.1308 20.3486 28.0787 20.1748L24.1061 6.90919C24.0674 6.77343 23.9974 6.64863 23.9018 6.54484C23.8061 6.44104 23.6875 6.36113 23.5553 6.31153C22.4329 5.85107 21.2722 5.4903 20.0865 5.2334C19.8587 5.1835 19.6205 5.21924 19.4173 5.3338C19.2141 5.44836 19.0602 5.63371 18.985 5.8545L18.0592 8.65528" stroke="#1ABDF2" stroke-width="2" stroke-linecap="round" stroke-linejoin="round"/>
<path d="M11.8369 21.3467L10.4189 24.1592C10.3276 24.351 10.1725 24.505 9.98 24.5948C9.78754 24.6847 9.5698 24.7046 9.3642 24.6514C6.4931 23.9483 4.00873 22.7295 2.20404 21.1592C2.06798 21.0391 1.96918 20.8826 1.91933 20.7082C1.86949 20.5337 1.87069 20.3486 1.92279 20.1748L5.89545 6.90919C5.93411 6.77343 6.00408 6.64863 6.09974 6.54484C6.1954 6.44104 6.31408 6.36113 6.44623 6.31153C7.5686 5.85107 8.72933 5.4903 9.91498 5.2334C10.1428 5.1835 10.3811 5.21924 10.5842 5.3338C10.7874 5.44836 10.9413 5.63371 11.0165 5.8545L11.9423 8.65528" stroke="#1ABDF2" stroke-width="2" stroke-linecap="round" stroke-linejoin="round"/>
</g>
</svg>
