<svg width="134" height="22" viewBox="0 0 134 22" fill="none" xmlns="http://www.w3.org/2000/svg">
<path d="M12.7289 2.4325L14.4889 5.9525C14.7289 6.4425 15.3689 6.9125 15.9089 7.0025L19.0989 7.5325C21.1389 7.8725 21.6189 9.3525 20.1489 10.8125L17.6689 13.2925C17.2489 13.7125 17.0189 14.5225 17.1489 15.1025L17.8589 18.1725C18.4189 20.6025 17.1289 21.5425 14.9789 20.2725L11.9889 18.5025C11.4489 18.1825 10.5589 18.1825 10.0089 18.5025L7.01893 20.2725C4.87893 21.5425 3.57893 20.5925 4.13893 18.1725L4.84893 15.1025C4.97893 14.5225 4.74893 13.7125 4.32893 13.2925L1.84893 10.8125C0.388932 9.3525 0.858933 7.8725 2.89893 7.5325L6.08893 7.0025C6.61893 6.9125 7.25893 6.4425 7.49893 5.9525L9.25893 2.4325C10.2189 0.5225 11.7789 0.5225 12.7289 2.4325Z" fill="#1ABDF2" stroke="#754672" stroke-width="1.5" stroke-linecap="round" stroke-linejoin="round"/>
<path d="M40.7289 2.4325L42.4889 5.9525C42.7289 6.4425 43.3689 6.9125 43.9089 7.0025L47.0989 7.5325C49.1389 7.8725 49.6189 9.3525 48.1489 10.8125L45.6689 13.2925C45.2489 13.7125 45.0189 14.5225 45.1489 15.1025L45.8589 18.1725C46.4189 20.6025 45.1289 21.5425 42.9789 20.2725L39.9889 18.5025C39.4489 18.1825 38.5589 18.1825 38.0089 18.5025L35.0189 20.2725C32.8789 21.5425 31.5789 20.5925 32.1389 18.1725L32.8489 15.1025C32.9789 14.5225 32.7489 13.7125 32.3289 13.2925L29.8489 10.8125C28.3889 9.3525 28.8589 7.8725 30.8989 7.5325L34.0889 7.0025C34.6189 6.9125 35.2589 6.4425 35.4989 5.9525L37.2589 2.4325C38.2189 0.5225 39.7789 0.5225 40.7289 2.4325Z" fill="#1ABDF2" stroke="#754672" stroke-width="1.5" stroke-linecap="round" stroke-linejoin="round"/>
<path d="M68.7289 2.4325L70.4889 5.9525C70.7289 6.4425 71.3689 6.9125 71.9089 7.0025L75.0989 7.5325C77.1389 7.8725 77.6189 9.3525 76.1489 10.8125L73.6689 13.2925C73.2489 13.7125 73.0189 14.5225 73.1489 15.1025L73.8589 18.1725C74.4189 20.6025 73.1289 21.5425 70.9789 20.2725L67.9889 18.5025C67.4489 18.1825 66.5589 18.1825 66.0089 18.5025L63.0189 20.2725C60.8789 21.5425 59.5789 20.5925 60.1389 18.1725L60.8489 15.1025C60.9789 14.5225 60.7489 13.7125 60.3289 13.2925L57.8489 10.8125C56.3889 9.3525 56.8589 7.8725 58.8989 7.5325L62.0889 7.0025C62.6189 6.9125 63.2589 6.4425 63.4989 5.9525L65.2589 2.4325C66.2189 0.5225 67.7789 0.5225 68.7289 2.4325Z" fill="#1ABDF2" stroke="#754672" stroke-width="1.5" stroke-linecap="round" stroke-linejoin="round"/>
<path d="M96.7289 2.4325L98.4889 5.9525C98.7289 6.4425 99.3689 6.9125 99.9089 7.0025L103.099 7.5325C105.139 7.8725 105.619 9.3525 104.149 10.8125L101.669 13.2925C101.249 13.7125 101.019 14.5225 101.149 15.1025L101.859 18.1725C102.419 20.6025 101.129 21.5425 98.9789 20.2725L95.9889 18.5025C95.4489 18.1825 94.5589 18.1825 94.0089 18.5025L91.0189 20.2725C88.8789 21.5425 87.5789 20.5925 88.1389 18.1725L88.8489 15.1025C88.9789 14.5225 88.7489 13.7125 88.3289 13.2925L85.8489 10.8125C84.3889 9.3525 84.8589 7.8725 86.8989 7.5325L90.0889 7.0025C90.6189 6.9125 91.2589 6.4425 91.4989 5.9525L93.2589 2.4325C94.2189 0.5225 95.7789 0.5225 96.7289 2.4325Z" fill="#1ABDF2" stroke="#754672" stroke-width="1.5" stroke-linecap="round" stroke-linejoin="round"/>
<path fill-rule="evenodd" clip-rule="evenodd" d="M122.009 18.5025C122.283 18.3429 122.642 18.2629 123 18.2625V1C122.37 0.998828 121.74 1.47633 121.259 2.4325L119.499 5.9525C119.259 6.4425 118.619 6.9125 118.089 7.0025L114.899 7.5325C112.859 7.8725 112.389 9.3525 113.849 10.8125L116.329 13.2925C116.749 13.7125 116.979 14.5225 116.849 15.1025L116.139 18.1725C115.579 20.5925 116.879 21.5425 119.019 20.2725L122.009 18.5025Z" fill="#1ABDF2"/>
<path d="M123 1C122.37 0.998828 121.74 1.47633 121.259 2.4325L119.499 5.9525C119.259 6.4425 118.619 6.9125 118.089 7.0025L114.899 7.5325C112.859 7.8725 112.389 9.3525 113.849 10.8125L116.329 13.2925C116.749 13.7125 116.979 14.5225 116.849 15.1025L116.139 18.1725C115.579 20.5925 116.879 21.5425 119.019 20.2725L122.009 18.5025C122.283 18.3429 122.642 18.2629 123 18.2625M123 1C123.628 1.00117 124.255 1.47867 124.729 2.4325L126.489 5.9525C126.729 6.4425 127.369 6.9125 127.909 7.0025L131.099 7.5325C133.139 7.8725 133.619 9.3525 132.149 10.8125L129.669 13.2925C129.249 13.7125 129.019 14.5225 129.149 15.1025L129.859 18.1725C130.419 20.6025 129.129 21.5425 126.979 20.2725L123.989 18.5025C123.718 18.3421 123.36 18.2621 123 18.2625M123 1V18.2625M123 18.5025V18.2625" stroke="#754672" stroke-width="1.5" stroke-linecap="round" stroke-linejoin="round"/>
</svg>
