<svg width="19" height="19" viewBox="0 0 19 19" fill="none" xmlns="http://www.w3.org/2000/svg">
<path d="M16.0312 5.9375H2.96875C2.64083 5.9375 2.375 6.20333 2.375 6.53125V8.90625C2.375 9.23417 2.64083 9.5 2.96875 9.5H16.0312C16.3592 9.5 16.625 9.23417 16.625 8.90625V6.53125C16.625 6.20333 16.3592 5.9375 16.0312 5.9375Z" stroke="#1ABDF2" stroke-linecap="round" stroke-linejoin="round"/>
<path d="M15.4375 9.5V14.8438C15.4375 15.0012 15.3749 15.1522 15.2636 15.2636C15.1522 15.3749 15.0012 15.4375 14.8438 15.4375H4.15625C3.99878 15.4375 3.84776 15.3749 3.73641 15.2636C3.62506 15.1522 3.5625 15.0012 3.5625 14.8438V9.5" stroke="#1ABDF2" stroke-linecap="round" stroke-linejoin="round"/>
<path d="M9.5 5.9375V15.4375" stroke="#1ABDF2" stroke-linecap="round" stroke-linejoin="round"/>
<path d="M12.8621 5.09879C12.016 5.93746 9.5 5.93746 9.5 5.93746C9.5 5.93746 9.5 3.42145 10.3387 2.57536C10.6733 2.24073 11.1272 2.05273 11.6004 2.05273C12.0736 2.05273 12.5275 2.24073 12.8621 2.57536C13.1967 2.90998 13.3847 3.36384 13.3847 3.83707C13.3847 4.31031 13.1967 4.76416 12.8621 5.09879V5.09879Z" stroke="#1ABDF2" stroke-linecap="round" stroke-linejoin="round"/>
<path d="M6.13786 5.09879C6.98395 5.93746 9.49996 5.93746 9.49996 5.93746C9.49996 5.93746 9.49996 3.42145 8.66129 2.57536C8.32666 2.24073 7.87281 2.05273 7.39957 2.05273C6.92634 2.05273 6.47248 2.24073 6.13786 2.57536C5.80323 2.90998 5.61523 3.36384 5.61523 3.83707C5.61523 4.31031 5.80323 4.76416 6.13786 5.09879V5.09879Z" stroke="#1ABDF2" stroke-linecap="round" stroke-linejoin="round"/>
</svg>
