<svg width="30" height="30" viewBox="0 0 30 30" fill="none" xmlns="http://www.w3.org/2000/svg">
<path d="M25.3125 9.375H4.6875C4.16973 9.375 3.75 9.79473 3.75 10.3125V14.0625C3.75 14.5803 4.16973 15 4.6875 15H25.3125C25.8303 15 26.25 14.5803 26.25 14.0625V10.3125C26.25 9.79473 25.8303 9.375 25.3125 9.375Z" stroke="#1ABDF2" stroke-linecap="round" stroke-linejoin="round"/>
<path d="M24.375 15V23.4375C24.375 23.6861 24.2762 23.9246 24.1004 24.1004C23.9246 24.2762 23.6861 24.375 23.4375 24.375H6.5625C6.31386 24.375 6.0754 24.2762 5.89959 24.1004C5.72377 23.9246 5.625 23.6861 5.625 23.4375V15" stroke="#1ABDF2" stroke-linecap="round" stroke-linejoin="round"/>
<path d="M15 9.375V24.375" stroke="#1ABDF2" stroke-linecap="round" stroke-linejoin="round"/>
<path d="M20.3086 8.05077C18.9727 9.37499 15 9.37499 15 9.37499C15 9.37499 15 5.40234 16.3242 4.0664C16.8526 3.53804 17.5692 3.24121 18.3164 3.24121C19.0636 3.24121 19.7802 3.53804 20.3086 4.0664C20.837 4.59476 21.1338 5.31137 21.1338 6.05859C21.1338 6.8058 20.837 7.52241 20.3086 8.05077V8.05077Z" stroke="#1ABDF2" stroke-linecap="round" stroke-linejoin="round"/>
<path d="M9.6914 8.05077C11.0273 9.37499 15 9.37499 15 9.37499C15 9.37499 15 5.40234 13.6758 4.0664C13.1474 3.53804 12.4308 3.24121 11.6836 3.24121C10.9364 3.24121 10.2198 3.53804 9.6914 4.0664C9.16304 4.59476 8.86621 5.31137 8.86621 6.05859C8.86621 6.8058 9.16304 7.52241 9.6914 8.05077V8.05077Z" stroke="#1ABDF2" stroke-linecap="round" stroke-linejoin="round"/>
</svg>
