<svg width="42" height="42" viewBox="0 0 42 42" fill="none" xmlns="http://www.w3.org/2000/svg">
<path d="M41 16.9521V22.9342C41 30.9103 37 34.8983 29 34.8983H28C27.38 34.8983 26.78 35.1974 26.4 35.6959L23.4 39.6839C22.08 41.4387 19.92 41.4387 18.6 39.6839L15.6 35.6959C15.28 35.2572 14.54 34.8983 14 34.8983H13C5 34.8983 1 32.9043 1 22.9342V12.9641C1 4.98804 5 1 13 1H25" stroke="#1ABDF2" stroke-width="1.5" stroke-miterlimit="10" stroke-linecap="round" stroke-linejoin="round"/>
<path d="M36 10.9701C38.7614 10.9701 41 8.73821 41 5.98504C41 3.23188 38.7614 1 36 1C33.2386 1 31 3.23188 31 5.98504C31 8.73821 33.2386 10.9701 36 10.9701Z" stroke="#1ABDF2" stroke-width="1.5" stroke-linecap="round" stroke-linejoin="round"/>
<path d="M28.9929 18.9462H29.0109" stroke="#1ABDF2" stroke-width="2" stroke-linecap="round" stroke-linejoin="round"/>
<path d="M20.991 18.9462H21.0089" stroke="#1ABDF2" stroke-width="2" stroke-linecap="round" stroke-linejoin="round"/>
<path d="M12.989 18.9462H13.007" stroke="#1ABDF2" stroke-width="2" stroke-linecap="round" stroke-linejoin="round"/>
</svg>
