<svg width="30" height="30" viewBox="0 0 30 30" fill="none" xmlns="http://www.w3.org/2000/svg">
<path d="M13.75 20.1875V23.5625C13.75 26.375 12.625 27.5 9.8125 27.5H6.4375C3.625 27.5 2.5 26.375 2.5 23.5625V20.1875C2.5 17.375 3.625 16.25 6.4375 16.25H9.8125C12.625 16.25 13.75 17.375 13.75 20.1875Z" stroke="#1ABDF2" stroke-width="1.5" stroke-linecap="round" stroke-linejoin="round"/>
<path d="M27.5 18.75C27.5 23.5875 23.5875 27.5 18.75 27.5L20.0625 25.3125" stroke="#1ABDF2" stroke-width="1.5" stroke-linecap="round" stroke-linejoin="round"/>
<path d="M2.5 11.25C2.5 6.4125 6.4125 2.5 11.25 2.5L9.9375 4.6875" stroke="#1ABDF2" stroke-width="1.5" stroke-linecap="round" stroke-linejoin="round"/>
<path d="M21.875 13.75C24.9816 13.75 27.5 11.2316 27.5 8.125C27.5 5.0184 24.9816 2.5 21.875 2.5C18.7684 2.5 16.25 5.0184 16.25 8.125C16.25 11.2316 18.7684 13.75 21.875 13.75Z" stroke="#1ABDF2" stroke-width="1.5" stroke-linecap="round" stroke-linejoin="round"/>
</svg>
