<svg width="35" height="36" viewBox="0 0 35 36" fill="none" xmlns="http://www.w3.org/2000/svg">
<path d="M1 1H3.90001C5.70001 1 7.11667 2.55 6.96667 4.33333L5.58333 20.9333C5.35 23.65 7.49999 25.9833 10.2333 25.9833H27.9833C30.3833 25.9833 32.4833 24.0167 32.6667 21.6333L33.5667 9.13334C33.7667 6.36667 31.6667 4.11666 28.8833 4.11666H7.36668" stroke="#1ABDF2" stroke-width="1.5" stroke-miterlimit="10" stroke-linecap="round" stroke-linejoin="round"/>
<path d="M24.7503 34.3334C25.9009 34.3334 26.8337 33.4006 26.8337 32.25C26.8337 31.0994 25.9009 30.1667 24.7503 30.1667C23.5997 30.1667 22.667 31.0994 22.667 32.25C22.667 33.4006 23.5997 34.3334 24.7503 34.3334Z" stroke="#1ABDF2" stroke-width="1.5" stroke-miterlimit="10" stroke-linecap="round" stroke-linejoin="round"/>
<path d="M11.4173 34.3334C12.5679 34.3334 13.5007 33.4006 13.5007 32.25C13.5007 31.0994 12.5679 30.1667 11.4173 30.1667C10.2667 30.1667 9.33398 31.0994 9.33398 32.25C9.33398 33.4006 10.2667 34.3334 11.4173 34.3334Z" stroke="#1ABDF2" stroke-width="1.5" stroke-miterlimit="10" stroke-linecap="round" stroke-linejoin="round"/>
<path d="M12.667 11H32.667" stroke="#1ABDF2" stroke-width="1.5" stroke-miterlimit="10" stroke-linecap="round" stroke-linejoin="round"/>
</svg>
