<svg width="20" height="22" viewBox="0 0 20 22" fill="none" xmlns="http://www.w3.org/2000/svg">
<path d="M9.89844 5.43994V8.76994" stroke="#1ABDF2" stroke-width="1.5" stroke-miterlimit="10" stroke-linecap="round"/>
<path d="M9.91736 1C6.23736 1 3.25736 3.98 3.25736 7.66V9.76C3.25736 10.44 2.97736 11.46 2.62736 12.04L1.35736 14.16C0.577359 15.47 1.11736 16.93 2.55736 17.41C7.33736 19 12.5074 19 17.2874 17.41C18.6374 16.96 19.2174 15.38 18.4874 14.16L17.2174 12.04C16.8674 11.46 16.5874 10.43 16.5874 9.76V7.66C16.5774 4 13.5774 1 9.91736 1Z" stroke="#1ABDF2" stroke-width="1.5" stroke-miterlimit="10" stroke-linecap="round"/>
<path d="M13.2264 17.8201C13.2264 19.6501 11.7264 21.1501 9.89641 21.1501C8.98641 21.1501 8.14641 20.7701 7.54641 20.1701C6.94641 19.5701 6.56641 18.7301 6.56641 17.8201" stroke="#1ABDF2" stroke-width="1.5" stroke-miterlimit="10"/>
</svg>
