<svg width="17" height="17" viewBox="0 0 17 17" fill="none" xmlns="http://www.w3.org/2000/svg">
<path d="M4 7V5.5C4 3.0175 4.75 1 8.5 1C12.25 1 13 3.0175 13 5.5V7" stroke="#1ABDF2" stroke-width="1.5" stroke-linecap="round" stroke-linejoin="round"/>
<path d="M8.5 13.375C9.53553 13.375 10.375 12.5355 10.375 11.5C10.375 10.4645 9.53553 9.625 8.5 9.625C7.46447 9.625 6.625 10.4645 6.625 11.5C6.625 12.5355 7.46447 13.375 8.5 13.375Z" stroke="#1ABDF2" stroke-width="1.5" stroke-linecap="round" stroke-linejoin="round"/>
<path d="M12.25 16H4.75C1.75 16 1 15.25 1 12.25V10.75C1 7.75 1.75 7 4.75 7H12.25C15.25 7 16 7.75 16 10.75V12.25C16 15.25 15.25 16 12.25 16Z" stroke="#1ABDF2" stroke-width="1.5" stroke-linecap="round" stroke-linejoin="round"/>
</svg>
