<svg width="58" height="68" viewBox="0 0 58 68" fill="none" xmlns="http://www.w3.org/2000/svg">
<g filter="url(#filter0_d_132_859)">
<path d="M4.94288 2.56704C4.34564 3.24387 4 4.29764 4 5.66231V54.3392C4 55.7038 4.34564 56.7576 4.94288 57.4344L5.09029 57.583L30.2863 30.3171V29.6733L5.09029 2.40746L4.94288 2.56704Z" fill="#1ABDF2"/>
<path d="M41.7254 39.4102L33.3361 30.317V29.6731L41.7356 20.5799L41.9236 20.6982L51.8709 26.8255C54.7097 28.5643 54.7097 31.4257 51.8709 33.1756L41.9236 39.2918L41.7254 39.4102Z" fill="#1ABDF2"/>
<path d="M40.3988 40.9853L31.8112 31.6885L6.46777 59.1277C7.41065 60.2007 8.94824 60.33 10.6968 59.257L40.3988 40.9853Z" fill="#1ABDF2"/>
<path d="M40.3988 19.0054L10.6968 0.733744C8.94824 -0.328278 7.41065 -0.198967 6.46777 0.874058L31.8112 28.3022L40.3988 19.0054Z" fill="#1ABDF2"/>
</g>
<defs>
<filter id="filter0_d_132_859" x="0" y="0" width="58" height="68" filterUnits="userSpaceOnUse" color-interpolation-filters="sRGB">
<feFlood flood-opacity="0" result="BackgroundImageFix"/>
<feColorMatrix in="SourceAlpha" type="matrix" values="0 0 0 0 0 0 0 0 0 0 0 0 0 0 0 0 0 0 127 0" result="hardAlpha"/>
<feOffset dy="4"/>
<feGaussianBlur stdDeviation="2"/>
<feComposite in2="hardAlpha" operator="out"/>
<feColorMatrix type="matrix" values="0 0 0 0 0.458824 0 0 0 0 0.27451 0 0 0 0 0.447059 0 0 0 1 0"/>
<feBlend mode="normal" in2="BackgroundImageFix" result="effect1_dropShadow_132_859"/>
<feBlend mode="normal" in="SourceGraphic" in2="effect1_dropShadow_132_859" result="shape"/>
</filter>
</defs>
</svg>
