<svg width="42" height="42" viewBox="0 0 42 42" fill="none" xmlns="http://www.w3.org/2000/svg">
<path fill-rule="evenodd" clip-rule="evenodd" d="M6.77927 1C5.30241 1.00499 4.00818 2.15405 3.61052 3.81333L1.22467 11.3067C0.503469 14.4706 1.55496 17.823 3.85625 19.6967C5.61998 21.1234 7.86979 21.4555 9.88257 20.5863C11.8953 19.717 13.4175 17.7559 13.9597 15.3333L14.4397 11.3333L15.8312 1H6.77927Z" stroke="#1ABDF2" stroke-width="1.5" stroke-linecap="round" stroke-linejoin="round"/>
<path fill-rule="evenodd" clip-rule="evenodd" d="M34.7659 1C36.2427 1.00499 37.537 2.15405 37.9346 3.81333L40.5919 10.83C40.7191 11.1497 40.8149 11.4852 40.8777 11.83C41.3785 14.8522 40.3069 17.935 38.1432 19.6967C36.3795 21.1234 34.1297 21.4555 32.1169 20.5863C30.1041 19.717 28.582 17.7559 28.0398 15.3333L27.5712 11.3067L25.7168 1H34.7659Z" stroke="#1ABDF2" stroke-width="1.5" stroke-linecap="round" stroke-linejoin="round"/>
<path d="M15.8311 0.25C15.4168 0.25 15.0811 0.585786 15.0811 1C15.0811 1.41421 15.4168 1.75 15.8311 1.75V0.25ZM25.7173 1.75C26.1315 1.75 26.4673 1.41421 26.4673 1C26.4673 0.585786 26.1315 0.25 25.7173 0.25V1.75ZM15.1779 11.3178C15.184 10.9037 14.8532 10.563 14.439 10.5569C14.0249 10.5508 13.6842 10.8816 13.6781 11.2958L15.1779 11.3178ZM14.3994 13.2468L13.6494 13.2357V13.2468H14.3994ZM27.583 13.2468H28.333L28.333 13.2424L27.583 13.2468ZM28.3216 11.3024C28.3191 10.8882 27.9814 10.5544 27.5672 10.5568C27.153 10.5592 26.8192 10.897 26.8216 11.3112L28.3216 11.3024ZM4.60576 19.7048C4.61023 19.2906 4.27809 18.9512 3.8639 18.9467C3.44971 18.9423 3.11032 19.2744 3.10585 19.6886L4.60576 19.7048ZM3.69865 34.2533L2.9487 34.2452L2.94869 34.2456L3.69865 34.2533ZM5.34798 39.0192L5.92028 38.5344H5.92028L5.34798 39.0192ZM9.41326 41V40.25H9.4132L9.41326 41ZM15.0593 41.75C15.4735 41.75 15.8093 41.4142 15.8093 41C15.8093 40.5858 15.4735 40.25 15.0593 40.25V41.75ZM38.8942 19.7081C38.9005 19.2939 38.5699 18.9531 38.1557 18.9468C37.7415 18.9405 37.4007 19.2711 37.3944 19.6853L38.8942 19.7081ZM37.9214 34.3333L37.1714 34.3219V34.3333H37.9214ZM26.4922 40.25C26.078 40.25 25.7422 40.5858 25.7422 41C25.7422 41.4142 26.078 41.75 26.4922 41.75V40.25ZM14.3135 41C14.3135 41.4142 14.6493 41.75 15.0635 41.75C15.4777 41.75 15.8135 41.4142 15.8135 41H14.3135ZM25.7427 41C25.7427 41.4142 26.0785 41.75 26.4927 41.75C26.9069 41.75 27.2427 41.4142 27.2427 41H25.7427ZM15.0635 40.25C14.6493 40.25 14.3135 40.5858 14.3135 41C14.3135 41.4142 14.6493 41.75 15.0635 41.75V40.25ZM26.4927 41.75C26.9069 41.75 27.2427 41.4142 27.2427 41C27.2427 40.5858 26.9069 40.25 26.4927 40.25V41.75ZM15.8311 1.75H25.7173V0.25H15.8311V1.75ZM13.6781 11.2958L13.6495 13.2357L15.1493 13.2578L15.1779 11.3178L13.6781 11.2958ZM13.6494 13.2468C13.6494 17.7955 16.8322 21.6868 20.9912 21.6868V20.1868C17.8691 20.1868 15.1494 17.1922 15.1494 13.2468H13.6494ZM20.9912 21.6868C25.1502 21.6868 28.333 17.7955 28.333 13.2468H26.833C26.833 17.1922 24.1133 20.1868 20.9912 20.1868V21.6868ZM28.333 13.2424L28.3216 11.3024L26.8216 11.3112L26.833 13.2512L28.333 13.2424ZM3.10585 19.6886L2.9487 34.2452L4.44861 34.2614L4.60576 19.7048L3.10585 19.6886ZM2.94869 34.2456C2.92866 36.1935 3.57669 38.0884 4.77569 39.5039L5.92028 38.5344C4.97189 37.4148 4.43199 35.877 4.44861 34.2611L2.94869 34.2456ZM4.77569 39.5039C5.97777 40.9231 7.6443 41.7502 9.41333 41.75L9.4132 40.25C8.1271 40.2501 6.86558 39.6505 5.92028 38.5344L4.77569 39.5039ZM9.41326 41.75H15.0593V40.25H9.41326V41.75ZM37.3944 19.6853L37.1715 34.3219L38.6713 34.3448L38.8942 19.7081L37.3944 19.6853ZM37.1714 34.3333C37.1714 37.7136 34.8444 40.25 32.2068 40.25V41.75C35.8814 41.75 38.6714 38.3169 38.6714 34.3333H37.1714ZM32.2068 40.25H26.4922V41.75H32.2068V40.25ZM15.8135 41V37.6666H14.3135V41H15.8135ZM15.8135 37.6666C15.8135 34.2864 18.1405 31.75 20.7781 31.75V30.25C17.1035 30.25 14.3135 33.6831 14.3135 37.6666H15.8135ZM20.7781 31.75C23.4157 31.75 25.7427 34.2864 25.7427 37.6666H27.2427C27.2427 33.6831 24.4527 30.25 20.7781 30.25V31.75ZM25.7427 37.6666V41H27.2427V37.6666H25.7427ZM15.0635 41.75H26.4927V40.25H15.0635V41.75Z" fill="#1ABDF2"/>
</svg>
