<svg width="30" height="30" viewBox="0 0 30 30" fill="none" xmlns="http://www.w3.org/2000/svg">
<path d="M23.5714 30C20.9713 30 18.6272 28.4337 17.6322 26.0315C16.6372 23.6293 17.1872 20.8643 19.0257 19.0257C20.8643 17.1872 23.6293 16.6372 26.0315 17.6322C28.4337 18.6272 30 20.9713 30 23.5714C30 25.2764 29.3227 26.9115 28.1171 28.1171C26.9115 29.3227 25.2764 30 23.5714 30ZM6.42857 30C2.87817 30 0 27.1218 0 23.5714C0 20.021 2.87817 17.1429 6.42857 17.1429C9.97897 17.1429 12.8571 20.021 12.8571 23.5714C12.8571 25.2764 12.1798 26.9115 10.9743 28.1171C9.76867 29.3227 8.13353 30 6.42857 30ZM23.5714 12.8571C20.021 12.8571 17.1429 9.97897 17.1429 6.42857C17.1429 2.87817 20.021 0 23.5714 0C27.1218 0 30 2.87817 30 6.42857C30 9.97897 27.1218 12.8571 23.5714 12.8571ZM6.42857 12.8571C2.87817 12.8571 0 9.97897 0 6.42857C0 2.87817 2.87817 0 6.42857 0C9.97897 0 12.8571 2.87817 12.8571 6.42857C12.8571 8.13353 12.1798 9.76867 10.9743 10.9743C9.76867 12.1798 8.13353 12.8571 6.42857 12.8571Z" fill="#1ABDF2"/>
</svg>
