<svg width="22" height="22" viewBox="0 0 22 22" fill="none" xmlns="http://www.w3.org/2000/svg">
<path d="M0 10.9998C0 10.3833 0.376205 9.87379 0.864306 9.79315L1 9.78203L18.5787 9.78301L12.228 2.08077C11.8367 1.60621 11.8353 0.835146 12.225 0.358541C12.5792 -0.0747356 13.1347 -0.115498 13.5268 0.237213L13.6392 0.354832L21.7058 10.1362C21.7574 10.1988 21.8022 10.2665 21.8403 10.338C21.851 10.3595 21.8619 10.3815 21.8723 10.404C21.8818 10.4232 21.8905 10.4432 21.8986 10.4634C21.9099 10.4928 21.9209 10.5232 21.9309 10.5542C21.9391 10.5781 21.9459 10.6013 21.9521 10.6248C21.9594 10.6538 21.9666 10.6848 21.9727 10.7162C21.9773 10.7382 21.9809 10.7593 21.9841 10.7805C21.9886 10.812 21.9923 10.8447 21.995 10.8777C21.9974 10.9029 21.9988 10.9279 21.9995 10.9529C21.9997 10.968 22 10.9839 22 10.9998L21.9995 11.047C21.9987 11.0709 21.9974 11.0948 21.9955 11.1186L22 10.9998C22 11.0767 21.9942 11.1519 21.983 11.2248C21.9804 11.2422 21.9773 11.2601 21.9739 11.2779C21.9668 11.3145 21.9586 11.3498 21.9491 11.3844C21.9445 11.4016 21.9391 11.42 21.9333 11.4382C21.9216 11.4749 21.9089 11.5098 21.8949 11.5438C21.8884 11.5598 21.8812 11.5766 21.8736 11.5932C21.8611 11.6202 21.8482 11.6459 21.8346 11.671C21.825 11.6887 21.8143 11.7072 21.8032 11.7253L21.7946 11.7394C21.7676 11.7822 21.7384 11.8228 21.7071 11.861L21.7059 11.8621L13.6392 21.6451C13.2479 22.1197 12.6147 22.1181 12.225 21.6415C11.8707 21.2083 11.8396 20.5317 12.1309 20.0556L12.228 19.9193L18.576 12.2186L1 12.2176C0.447715 12.2176 0 11.6724 0 10.9998Z" fill="#1ABDF2"/>
</svg>
