<svg width="30" height="30" viewBox="0 0 30 30" fill="none" xmlns="http://www.w3.org/2000/svg">
<g opacity="0.7">
<path d="M15 10.3119C15 7.73382 17.168 5.58929 19.7461 5.62445C20.649 5.63487 21.5296 5.90584 22.2822 6.40477C23.0347 6.90371 23.6272 7.60938 23.9883 8.43695H28.125L24.3399 12.2221C24.0956 16.0243 22.4125 19.5908 19.6327 22.1965C16.8529 24.8021 13.1851 26.2513 9.37502 26.2494C5.62502 26.2494 4.68752 24.8432 4.68752 24.8432C4.68752 24.8432 8.43752 23.4369 10.3125 20.6244C10.3125 20.6244 2.81252 16.8744 4.68752 6.56195C4.68752 6.56195 9.37502 11.2494 15 12.1869V10.3119Z" stroke="#1ABDF2" stroke-width="2" stroke-linecap="round" stroke-linejoin="round"/>
</g>
</svg>
