<svg width="35" height="35" viewBox="0 0 35 35" fill="none" xmlns="http://www.w3.org/2000/svg">
<path d="M27.6307 33.373C26.1787 33.802 24.4627 34 22.4497 34H12.5497C10.5367 34 8.82065 33.802 7.36865 33.373C7.73165 29.083 12.1372 25.7004 17.4997 25.7004C22.8622 25.7004 27.2677 29.083 27.6307 33.373Z" stroke="#1ABDF2" stroke-width="1.5" stroke-linecap="round" stroke-linejoin="round"/>
<path d="M22.45 1H12.55C4.3 1 1 4.3 1 12.55V22.45C1 28.687 2.881 32.1025 7.369 33.373C7.732 29.083 12.1375 25.7005 17.5 25.7005C22.8625 25.7005 27.268 29.083 27.631 33.373C32.119 32.1025 34 28.687 34 22.45V12.55C34 4.3 30.7 1 22.45 1ZM17.5 21.0805C14.233 21.0805 11.593 18.424 11.593 15.157C11.593 11.89 14.233 9.25 17.5 9.25C20.767 9.25 23.407 11.89 23.407 15.157C23.407 18.424 20.767 21.0805 17.5 21.0805Z" stroke="#1ABDF2" stroke-width="1.5" stroke-linecap="round" stroke-linejoin="round"/>
<path d="M23.407 15.157C23.407 18.424 20.767 21.0805 17.5 21.0805C14.233 21.0805 11.593 18.424 11.593 15.157C11.593 11.89 14.233 9.25 17.5 9.25C20.767 9.25 23.407 11.89 23.407 15.157Z" stroke="#1ABDF2" stroke-width="1.5" stroke-linecap="round" stroke-linejoin="round"/>
</svg>
