<svg width="58" height="68" viewBox="0 0 58 68" fill="none" xmlns="http://www.w3.org/2000/svg">
<g filter="url(#filter0_d_132_854)">
<path d="M45.7615 31.9079C45.6916 24.3278 52.1186 20.6401 52.4125 20.4684C48.7726 15.2872 43.1309 14.5793 41.1483 14.5228C36.41 14.036 31.8137 17.291 29.4 17.291C26.9381 17.291 23.2211 14.5699 19.215 14.6498C14.0599 14.7274 9.23725 17.6414 6.59224 22.1664C1.1336 31.3928 5.2047 44.9514 10.4345 52.4092C13.0506 56.0616 16.1075 60.1398 20.1088 59.9963C24.0233 59.8387 25.4855 57.5598 30.2094 57.5598C34.89 57.5598 36.263 59.9963 40.3438 59.9046C44.5449 59.8387 47.1899 56.2357 49.7145 52.5503C52.7377 48.364 53.9518 44.2411 54 44.0294C53.9012 43.9965 45.841 40.9932 45.7615 31.9079Z" fill="#1ABDF2"/>
<path d="M38.0529 9.61682C40.1583 7.04622 41.5988 3.54898 41.1989 0C38.1516 0.131705 34.3407 2.05789 32.1462 4.57205C30.2046 6.78751 28.4701 10.4188 28.9182 13.8337C32.3413 14.083 35.8559 12.1474 38.0529 9.61682Z" fill="#1ABDF2"/>
</g>
<defs>
<filter id="filter0_d_132_854" x="0" y="0" width="58" height="68" filterUnits="userSpaceOnUse" color-interpolation-filters="sRGB">
<feFlood flood-opacity="0" result="BackgroundImageFix"/>
<feColorMatrix in="SourceAlpha" type="matrix" values="0 0 0 0 0 0 0 0 0 0 0 0 0 0 0 0 0 0 127 0" result="hardAlpha"/>
<feOffset dy="4"/>
<feGaussianBlur stdDeviation="2"/>
<feComposite in2="hardAlpha" operator="out"/>
<feColorMatrix type="matrix" values="0 0 0 0 0.458824 0 0 0 0 0.27451 0 0 0 0 0.447059 0 0 0 1 0"/>
<feBlend mode="normal" in2="BackgroundImageFix" result="effect1_dropShadow_132_854"/>
<feBlend mode="normal" in="SourceGraphic" in2="effect1_dropShadow_132_854" result="shape"/>
</filter>
</defs>
</svg>
