<svg width="128" height="28" fill="none" xmlns="http://www.w3.org/2000/svg"><path d="M20.584 21.6h-11.7L6.652 27H.676L11.908 1.8h5.76L28.936 27h-6.12l-2.232-5.4zm-1.836-4.428l-3.996-9.648-3.996 9.648h7.992zM50.707.288V27h-5.364v-2.232c-1.392 1.68-3.408 2.52-6.048 2.52-1.824 0-3.48-.408-4.968-1.224-1.464-.816-2.616-1.98-3.456-3.492-.84-1.512-1.26-3.264-1.26-5.256 0-1.992.42-3.744 1.26-5.256.84-1.512 1.992-2.676 3.456-3.492 1.488-.816 3.144-1.224 4.968-1.224 2.472 0 4.404.78 5.796 2.34V.288h5.616zM40.267 22.68c1.416 0 2.592-.48 3.528-1.44.936-.984 1.404-2.292 1.404-3.924 0-1.632-.468-2.928-1.404-3.888-.936-.984-2.112-1.476-3.528-1.476-1.44 0-2.628.492-3.564 1.476-.936.96-1.404 2.256-1.404 3.888 0 1.632.468 2.94 1.404 3.924.936.96 2.124 1.44 3.564 1.44zm35.15-15.048V27h-5.329v-2.304a7.643 7.643 0 01-2.663 1.944c-1.032.432-2.148.648-3.349.648-2.543 0-4.56-.732-6.047-2.196-1.489-1.464-2.233-3.636-2.233-6.516V7.632h5.617v10.116c0 3.12 1.308 4.68 3.924 4.68 1.343 0 2.423-.432 3.24-1.296.816-.888 1.224-2.196 1.224-3.924V7.632h5.615zM80.618.288h5.616V27H80.62V.288zm24.727 25.776c-.552.408-1.236.72-2.052.936-.792.192-1.632.288-2.52.288-2.304 0-4.092-.588-5.364-1.764-1.248-1.176-1.872-2.904-1.872-5.184v-7.956H90.55v-4.32h2.988V3.348h5.616v4.716h4.824v4.32h-4.824v7.884c0 .816.204 1.452.612 1.908.432.432 1.032.648 1.8.648.888 0 1.644-.24 2.268-.72l1.512 3.96zm11.771 1.224c-2.04 0-3.876-.42-5.508-1.26-1.608-.864-2.868-2.052-3.78-3.564-.912-1.512-1.368-3.228-1.368-5.148 0-1.92.456-3.636 1.368-5.148.912-1.512 2.172-2.688 3.78-3.528 1.632-.864 3.468-1.296 5.508-1.296s3.864.432 5.472 1.296c1.608.84 2.868 2.016 3.78 3.528.912 1.512 1.368 3.228 1.368 5.148 0 1.92-.456 3.636-1.368 5.148-.912 1.512-2.172 2.7-3.78 3.564-1.608.84-3.432 1.26-5.472 1.26zm0-4.608c1.44 0 2.616-.48 3.528-1.44.936-.984 1.404-2.292 1.404-3.924 0-1.632-.468-2.928-1.404-3.888-.912-.984-2.088-1.476-3.528-1.476s-2.628.492-3.564 1.476c-.936.96-1.404 2.256-1.404 3.888 0 1.632.468 2.94 1.404 3.924.936.96 2.124 1.44 3.564 1.44z" fill="#fff"/></svg>