<svg width="670" height="142" fill="none" xmlns="http://www.w3.org/2000/svg"><g opacity=".5" filter="url(#filter0_d_394_305)"><path d="M613 74c0 7.88-7.307 15.681-21.504 22.961-14.197 7.28-35.006 13.894-61.238 19.465-26.233 5.572-57.375 9.991-91.65 13.007C404.334 132.448 367.598 134 330.5 134s-73.834-1.552-108.108-4.567c-34.275-3.016-65.417-7.435-91.65-13.007-26.232-5.571-47.041-12.185-61.238-19.465C55.307 89.681 48 81.879 48 74h565z" fill="url(#paint0_linear_394_305)"/></g><g filter="url(#filter1_d_394_305)"><path d="M666 60c0 7.88-8.562 15.681-25.196 22.961-16.634 7.28-41.015 13.894-71.752 19.465-30.736 5.572-67.225 9.991-107.384 13.007C421.509 118.448 378.468 120 335 120s-86.509-1.552-126.668-4.567c-40.159-3.016-76.648-7.435-107.384-13.007C70.211 96.855 45.83 90.24 29.196 82.961 12.562 75.681 4 67.879 4 60h662z" fill="url(#paint1_linear_394_305)"/></g><path opacity=".5" d="M191.048 102.432c-2.568 0-4.896-.552-6.984-1.656-2.064-1.128-3.696-2.676-4.896-4.644-1.176-1.992-1.764-4.236-1.764-6.732 0-2.496.588-4.728 1.764-6.696a12.485 12.485 0 014.896-4.644c2.088-1.128 4.428-1.692 7.02-1.692 2.184 0 4.152.384 5.904 1.152 1.776.768 3.264 1.872 4.464 3.312l-3.744 3.456c-1.704-1.968-3.816-2.952-6.336-2.952-1.56 0-2.952.348-4.176 1.044a7.293 7.293 0 00-2.88 2.844c-.672 1.224-1.008 2.616-1.008 4.176s.336 2.952 1.008 4.176a7.545 7.545 0 002.88 2.88c1.224.672 2.616 1.008 4.176 1.008 2.52 0 4.632-.996 6.336-2.988l3.744 3.456a11.67 11.67 0 01-4.464 3.348c-1.776.768-3.756 1.152-5.94 1.152zm30.446-5.832h-11.7l-2.232 5.4h-5.976l11.232-25.2h5.76l11.268 25.2h-6.12l-2.232-5.4zm-1.836-4.428l-3.996-9.648-3.996 9.648h7.992zM248.517 102l-4.86-7.02h-5.364V102h-5.832V76.8h10.908c2.232 0 4.164.372 5.796 1.116 1.656.744 2.928 1.8 3.816 3.168.888 1.368 1.332 2.988 1.332 4.86 0 1.872-.456 3.492-1.368 4.86-.888 1.344-2.16 2.376-3.816 3.096l5.652 8.1h-6.264zm-.108-16.056c0-1.416-.456-2.496-1.368-3.24-.912-.768-2.244-1.152-3.996-1.152h-4.752v8.784h4.752c1.752 0 3.084-.384 3.996-1.152.912-.768 1.368-1.848 1.368-3.24zM274.989 102l-4.86-7.02h-5.364V102h-5.832V76.8h10.908c2.232 0 4.164.372 5.796 1.116 1.656.744 2.928 1.8 3.816 3.168.888 1.368 1.332 2.988 1.332 4.86 0 1.872-.456 3.492-1.368 4.86-.888 1.344-2.16 2.376-3.816 3.096l5.652 8.1h-6.264zm-.108-16.056c0-1.416-.456-2.496-1.368-3.24-.912-.768-2.244-1.152-3.996-1.152h-4.752v8.784h4.752c1.752 0 3.084-.384 3.996-1.152.912-.768 1.368-1.848 1.368-3.24zm30.037 11.376V102h-19.512V76.8h19.044v4.68h-13.248v5.472h11.7v4.536h-11.7v5.832h13.716zm21.598-8.316h5.328v10.224c-1.368 1.032-2.952 1.824-4.752 2.376a18.45 18.45 0 01-5.436.828c-2.616 0-4.968-.552-7.056-1.656-2.088-1.128-3.732-2.676-4.932-4.644-1.176-1.992-1.764-4.236-1.764-6.732 0-2.496.588-4.728 1.764-6.696 1.2-1.992 2.856-3.54 4.968-4.644 2.112-1.128 4.488-1.692 7.128-1.692 2.208 0 4.212.372 6.012 1.116 1.8.744 3.312 1.824 4.536 3.24l-3.744 3.456c-1.8-1.896-3.972-2.844-6.516-2.844-1.608 0-3.036.336-4.284 1.008a7.231 7.231 0 00-2.916 2.844c-.696 1.224-1.044 2.628-1.044 4.212 0 1.56.348 2.952 1.044 4.176a7.545 7.545 0 002.88 2.88c1.248.672 2.664 1.008 4.248 1.008 1.68 0 3.192-.36 4.536-1.08v-7.38zm27.341 7.596h-11.7l-2.232 5.4h-5.976l11.232-25.2h5.76l11.268 25.2h-6.12l-2.232-5.4zm-1.836-4.428l-3.996-9.648-3.996 9.648h7.992zM380.88 102l-4.86-7.02h-5.364V102h-5.832V76.8h10.908c2.232 0 4.164.372 5.796 1.116 1.656.744 2.928 1.8 3.816 3.168.888 1.368 1.332 2.988 1.332 4.86 0 1.872-.456 3.492-1.368 4.86-.888 1.344-2.16 2.376-3.816 3.096l5.652 8.1h-6.264zm-.108-16.056c0-1.416-.456-2.496-1.368-3.24-.912-.768-2.244-1.152-3.996-1.152h-4.752v8.784h4.752c1.752 0 3.084-.384 3.996-1.152.912-.768 1.368-1.848 1.368-3.24zM424.424 102l-.036-15.12-7.416 12.456h-2.628l-7.38-12.132V102h-5.472V76.8h4.824l9.432 15.66 9.288-15.66h4.788l.072 25.2h-5.472zm28.047-5.4h-11.7l-2.232 5.4h-5.976l11.232-25.2h5.76l11.268 25.2h-6.12l-2.232-5.4zm-1.836-4.428l-3.996-9.648-3.996 9.648h7.992zM463.437 76.8h5.832V102h-5.832V76.8zm20.093 25.632c-1.992 0-3.924-.264-5.796-.792-1.848-.552-3.336-1.26-4.464-2.124l1.98-4.392c1.08.792 2.364 1.428 3.852 1.908s2.976.72 4.464.72c1.656 0 2.88-.24 3.672-.72.792-.504 1.188-1.164 1.188-1.98 0-.6-.24-1.092-.72-1.476-.456-.408-1.056-.732-1.8-.972-.72-.24-1.704-.504-2.952-.792-1.92-.456-3.492-.912-4.716-1.368a7.798 7.798 0 01-3.168-2.196c-.864-1.008-1.296-2.352-1.296-4.032 0-1.464.396-2.784 1.188-3.96.792-1.2 1.98-2.148 3.564-2.844 1.608-.696 3.564-1.044 5.868-1.044 1.608 0 3.18.192 4.716.576 1.536.384 2.88.936 4.032 1.656l-1.8 4.428c-2.328-1.32-4.656-1.98-6.984-1.98-1.632 0-2.844.264-3.636.792-.768.528-1.152 1.224-1.152 2.088 0 .864.444 1.512 1.332 1.944.912.408 2.292.816 4.14 1.224 1.92.456 3.492.912 4.716 1.368a7.67 7.67 0 013.132 2.16c.888.984 1.332 2.316 1.332 3.996 0 1.44-.408 2.76-1.224 3.96-.792 1.176-1.992 2.112-3.6 2.808-1.608.696-3.564 1.044-5.868 1.044z" fill="#fff"/><defs><linearGradient id="paint0_linear_394_305" x1="-1463.38" y1="-228" x2="-1157.74" y2="907.17" gradientUnits="userSpaceOnUse"><stop stop-color="#754672"/><stop offset="1" stop-color="#110C1F"/></linearGradient><linearGradient id="paint1_linear_394_305" x1="-1766.85" y1="-242" x2="-1501.12" y2="914.397" gradientUnits="userSpaceOnUse"><stop stop-color="#754672"/><stop offset="1" stop-color="#110C1F"/></linearGradient><filter id="filter0_d_394_305" x="44" y="74" width="573" height="68" filterUnits="userSpaceOnUse" color-interpolation-filters="sRGB"><feFlood flood-opacity="0" result="BackgroundImageFix"/><feColorMatrix in="SourceAlpha" values="0 0 0 0 0 0 0 0 0 0 0 0 0 0 0 0 0 0 127 0" result="hardAlpha"/><feOffset dy="4"/><feGaussianBlur stdDeviation="2"/><feComposite in2="hardAlpha" operator="out"/><feColorMatrix values="0 0 0 0 0 0 0 0 0 0 0 0 0 0 0 0 0 0 0.25 0"/><feBlend in2="BackgroundImageFix" result="effect1_dropShadow_394_305"/><feBlend in="SourceGraphic" in2="effect1_dropShadow_394_305" result="shape"/></filter><filter id="filter1_d_394_305" x="0" y="60" width="670" height="68" filterUnits="userSpaceOnUse" color-interpolation-filters="sRGB"><feFlood flood-opacity="0" result="BackgroundImageFix"/><feColorMatrix in="SourceAlpha" values="0 0 0 0 0 0 0 0 0 0 0 0 0 0 0 0 0 0 127 0" result="hardAlpha"/><feOffset dy="4"/><feGaussianBlur stdDeviation="2"/><feComposite in2="hardAlpha" operator="out"/><feColorMatrix values="0 0 0 0 0 0 0 0 0 0 0 0 0 0 0 0 0 0 0.25 0"/><feBlend in2="BackgroundImageFix" result="effect1_dropShadow_394_305"/><feBlend in="SourceGraphic" in2="effect1_dropShadow_394_305" result="shape"/></filter></defs></svg>