<svg width="22" height="20" fill="none" xmlns="http://www.w3.org/2000/svg"><path d="M1.833 1.667h1.595c.99 0 1.77.775 1.687 1.666l-.761 8.3c-.128 1.359 1.054 2.525 2.557 2.525h9.763c1.32 0 2.475-.983 2.576-2.175l.495-6.25c.11-1.383-1.045-2.508-2.576-2.508H5.335m9.561 15.108c.633 0 1.146-.466 1.146-1.041 0-.576-.513-1.042-1.146-1.042-.633 0-1.146.466-1.146 1.042 0 .575.513 1.041 1.146 1.041zm-7.333 0c.633 0 1.146-.466 1.146-1.041 0-.576-.513-1.042-1.146-1.042-.633 0-1.146.466-1.146 1.042 0 .575.513 1.041 1.146 1.041zM8.25 6.667h11" opacity=".8" stroke="#1ABDF2" stroke-width="1.5" stroke-miterlimit="10" stroke-linecap="round" stroke-linejoin="round"/></svg>