<svg width="247" height="30" fill="none" xmlns="http://www.w3.org/2000/svg"><g filter="url(#filter0_d_152_493)"><path d="M243 .5c0 2.823-3.091 5.62-9.096 8.228-6.006 2.608-14.808 4.978-25.905 6.975-11.096 1.996-24.27 3.58-38.768 4.66C154.732 21.443 139.193 22 123.5 22c-15.693 0-31.232-.556-45.73-1.637-14.5-1.08-27.673-2.664-38.77-4.66-11.096-1.997-19.898-4.367-25.904-6.975C7.091 6.119 4 3.323 4 .5h239z" fill="url(#paint0_linear_152_493)"/></g><defs><linearGradient id="paint0_linear_152_493" x1="-635.325" y1="-107.717" x2="-540.746" y2="306.968" gradientUnits="userSpaceOnUse"><stop stop-color="#754672"/><stop offset="1" stop-color="#110C1F"/></linearGradient><filter id="filter0_d_152_493" x="0" y=".5" width="247" height="29.5" filterUnits="userSpaceOnUse" color-interpolation-filters="sRGB"><feFlood flood-opacity="0" result="BackgroundImageFix"/><feColorMatrix in="SourceAlpha" values="0 0 0 0 0 0 0 0 0 0 0 0 0 0 0 0 0 0 127 0" result="hardAlpha"/><feOffset dy="4"/><feGaussianBlur stdDeviation="2"/><feComposite in2="hardAlpha" operator="out"/><feColorMatrix values="0 0 0 0 0 0 0 0 0 0 0 0 0 0 0 0 0 0 0.25 0"/><feBlend in2="BackgroundImageFix" result="effect1_dropShadow_152_493"/><feBlend in="SourceGraphic" in2="effect1_dropShadow_152_493" result="shape"/></filter></defs></svg>