<svg width="670" height="142" viewBox="0 0 670 142" fill="none" xmlns="http://www.w3.org/2000/svg">
<g opacity="0.5" filter="url(#filter0_d_394_305)">
<path d="M613 74C613 81.8793 605.693 89.6815 591.496 96.961C577.299 104.241 556.49 110.855 530.258 116.426C504.025 121.998 472.883 126.417 438.608 129.433C404.334 132.448 367.598 134 330.5 134C293.402 134 256.666 132.448 222.392 129.433C188.117 126.417 156.975 121.998 130.742 116.426C104.51 110.855 83.701 104.241 69.504 96.961C55.3071 89.6815 48 81.8793 48 74L330.5 74H613Z" fill="url(#paint0_linear_394_305)"/>
</g>
<g filter="url(#filter1_d_394_305)">
<path d="M666 60C666 67.8793 657.438 75.6815 640.804 82.961C624.17 90.2405 599.789 96.8549 569.052 102.426C538.316 107.998 501.827 112.417 461.668 115.433C421.509 118.448 378.468 120 335 120C291.532 120 248.491 118.448 208.332 115.433C168.173 112.417 131.684 107.998 100.948 102.426C70.2114 96.8549 45.8302 90.2405 29.1959 82.961C12.5616 75.6815 4 67.8793 4 60L335 60L666 60Z" fill="url(#paint1_linear_394_305)"/>
</g>
<path opacity="0.5" d="M191.048 102.432C188.48 102.432 186.152 101.88 184.064 100.776C182 99.648 180.368 98.1 179.168 96.132C177.992 94.14 177.404 91.896 177.404 89.4C177.404 86.904 177.992 84.672 179.168 82.704C180.368 80.712 182 79.164 184.064 78.06C186.152 76.932 188.492 76.368 191.084 76.368C193.268 76.368 195.236 76.752 196.988 77.52C198.764 78.288 200.252 79.392 201.452 80.832L197.708 84.288C196.004 82.32 193.892 81.336 191.372 81.336C189.812 81.336 188.42 81.684 187.196 82.38C185.972 83.052 185.012 84 184.316 85.224C183.644 86.448 183.308 87.84 183.308 89.4C183.308 90.96 183.644 92.352 184.316 93.576C185.012 94.8 185.972 95.76 187.196 96.456C188.42 97.128 189.812 97.464 191.372 97.464C193.892 97.464 196.004 96.468 197.708 94.476L201.452 97.932C200.252 99.396 198.764 100.512 196.988 101.28C195.212 102.048 193.232 102.432 191.048 102.432ZM221.494 96.6H209.794L207.562 102H201.586L212.818 76.8H218.578L229.846 102H223.726L221.494 96.6ZM219.658 92.172L215.662 82.524L211.666 92.172H219.658ZM248.517 102L243.657 94.98H243.369H238.293V102H232.461V76.8H243.369C245.601 76.8 247.533 77.172 249.165 77.916C250.821 78.66 252.093 79.716 252.981 81.084C253.869 82.452 254.313 84.072 254.313 85.944C254.313 87.816 253.857 89.436 252.945 90.804C252.057 92.148 250.785 93.18 249.129 93.9L254.781 102H248.517ZM248.409 85.944C248.409 84.528 247.953 83.448 247.041 82.704C246.129 81.936 244.797 81.552 243.045 81.552H238.293V90.336H243.045C244.797 90.336 246.129 89.952 247.041 89.184C247.953 88.416 248.409 87.336 248.409 85.944ZM274.989 102L270.129 94.98H269.841H264.765V102H258.933V76.8H269.841C272.073 76.8 274.005 77.172 275.637 77.916C277.293 78.66 278.565 79.716 279.453 81.084C280.341 82.452 280.785 84.072 280.785 85.944C280.785 87.816 280.329 89.436 279.417 90.804C278.529 92.148 277.257 93.18 275.601 93.9L281.253 102H274.989ZM274.881 85.944C274.881 84.528 274.425 83.448 273.513 82.704C272.601 81.936 271.269 81.552 269.517 81.552H264.765V90.336H269.517C271.269 90.336 272.601 89.952 273.513 89.184C274.425 88.416 274.881 87.336 274.881 85.944ZM304.918 97.32V102H285.406V76.8H304.45V81.48H291.202V86.952H302.902V91.488H291.202V97.32H304.918ZM326.516 89.004H331.844V99.228C330.476 100.26 328.892 101.052 327.092 101.604C325.292 102.156 323.48 102.432 321.656 102.432C319.04 102.432 316.688 101.88 314.6 100.776C312.512 99.648 310.868 98.1 309.668 96.132C308.492 94.14 307.904 91.896 307.904 89.4C307.904 86.904 308.492 84.672 309.668 82.704C310.868 80.712 312.524 79.164 314.636 78.06C316.748 76.932 319.124 76.368 321.764 76.368C323.972 76.368 325.976 76.74 327.776 77.484C329.576 78.228 331.088 79.308 332.312 80.724L328.568 84.18C326.768 82.284 324.596 81.336 322.052 81.336C320.444 81.336 319.016 81.672 317.768 82.344C316.52 83.016 315.548 83.964 314.852 85.188C314.156 86.412 313.808 87.816 313.808 89.4C313.808 90.96 314.156 92.352 314.852 93.576C315.548 94.8 316.508 95.76 317.732 96.456C318.98 97.128 320.396 97.464 321.98 97.464C323.66 97.464 325.172 97.104 326.516 96.384V89.004ZM353.857 96.6H342.157L339.925 102H333.949L345.181 76.8H350.941L362.209 102H356.089L353.857 96.6ZM352.021 92.172L348.025 82.524L344.029 92.172H352.021ZM380.88 102L376.02 94.98H375.732H370.656V102H364.824V76.8H375.732C377.964 76.8 379.896 77.172 381.528 77.916C383.184 78.66 384.456 79.716 385.344 81.084C386.232 82.452 386.676 84.072 386.676 85.944C386.676 87.816 386.22 89.436 385.308 90.804C384.42 92.148 383.148 93.18 381.492 93.9L387.144 102H380.88ZM380.772 85.944C380.772 84.528 380.316 83.448 379.404 82.704C378.492 81.936 377.16 81.552 375.408 81.552H370.656V90.336H375.408C377.16 90.336 378.492 89.952 379.404 89.184C380.316 88.416 380.772 87.336 380.772 85.944ZM424.424 102L424.388 86.88L416.972 99.336H414.344L406.964 87.204V102H401.492V76.8H406.316L415.748 92.46L425.036 76.8H429.824L429.896 102H424.424ZM452.471 96.6H440.771L438.539 102H432.563L443.795 76.8H449.555L460.823 102H454.703L452.471 96.6ZM450.635 92.172L446.639 82.524L442.643 92.172H450.635ZM463.437 76.8H469.269V102H463.437V76.8ZM483.53 102.432C481.538 102.432 479.606 102.168 477.734 101.64C475.886 101.088 474.398 100.38 473.27 99.516L475.25 95.124C476.33 95.916 477.614 96.552 479.102 97.032C480.59 97.512 482.078 97.752 483.566 97.752C485.222 97.752 486.446 97.512 487.238 97.032C488.03 96.528 488.426 95.868 488.426 95.052C488.426 94.452 488.186 93.96 487.706 93.576C487.25 93.168 486.65 92.844 485.906 92.604C485.186 92.364 484.202 92.1 482.954 91.812C481.034 91.356 479.462 90.9 478.238 90.444C477.014 89.988 475.958 89.256 475.07 88.248C474.206 87.24 473.774 85.896 473.774 84.216C473.774 82.752 474.17 81.432 474.962 80.256C475.754 79.056 476.942 78.108 478.526 77.412C480.134 76.716 482.09 76.368 484.394 76.368C486.002 76.368 487.574 76.56 489.11 76.944C490.646 77.328 491.99 77.88 493.142 78.6L491.342 83.028C489.014 81.708 486.686 81.048 484.358 81.048C482.726 81.048 481.514 81.312 480.722 81.84C479.954 82.368 479.57 83.064 479.57 83.928C479.57 84.792 480.014 85.44 480.902 85.872C481.814 86.28 483.194 86.688 485.042 87.096C486.962 87.552 488.534 88.008 489.758 88.464C490.982 88.92 492.026 89.64 492.89 90.624C493.778 91.608 494.222 92.94 494.222 94.62C494.222 96.06 493.814 97.38 492.998 98.58C492.206 99.756 491.006 100.692 489.398 101.388C487.79 102.084 485.834 102.432 483.53 102.432Z" fill="white"/>
<defs>
<filter id="filter0_d_394_305" x="44" y="74" width="573" height="68" filterUnits="userSpaceOnUse" color-interpolation-filters="sRGB">
<feFlood flood-opacity="0" result="BackgroundImageFix"/>
<feColorMatrix in="SourceAlpha" type="matrix" values="0 0 0 0 0 0 0 0 0 0 0 0 0 0 0 0 0 0 127 0" result="hardAlpha"/>
<feOffset dy="4"/>
<feGaussianBlur stdDeviation="2"/>
<feComposite in2="hardAlpha" operator="out"/>
<feColorMatrix type="matrix" values="0 0 0 0 0 0 0 0 0 0 0 0 0 0 0 0 0 0 0.25 0"/>
<feBlend mode="normal" in2="BackgroundImageFix" result="effect1_dropShadow_394_305"/>
<feBlend mode="normal" in="SourceGraphic" in2="effect1_dropShadow_394_305" result="shape"/>
</filter>
<filter id="filter1_d_394_305" x="0" y="60" width="670" height="68" filterUnits="userSpaceOnUse" color-interpolation-filters="sRGB">
<feFlood flood-opacity="0" result="BackgroundImageFix"/>
<feColorMatrix in="SourceAlpha" type="matrix" values="0 0 0 0 0 0 0 0 0 0 0 0 0 0 0 0 0 0 127 0" result="hardAlpha"/>
<feOffset dy="4"/>
<feGaussianBlur stdDeviation="2"/>
<feComposite in2="hardAlpha" operator="out"/>
<feColorMatrix type="matrix" values="0 0 0 0 0 0 0 0 0 0 0 0 0 0 0 0 0 0 0.25 0"/>
<feBlend mode="normal" in2="BackgroundImageFix" result="effect1_dropShadow_394_305"/>
<feBlend mode="normal" in="SourceGraphic" in2="effect1_dropShadow_394_305" result="shape"/>
</filter>
<linearGradient id="paint0_linear_394_305" x1="-1463.38" y1="-228" x2="-1157.74" y2="907.17" gradientUnits="userSpaceOnUse">
<stop stop-color="#754672"/>
<stop offset="1" stop-color="#110C1F"/>
</linearGradient>
<linearGradient id="paint1_linear_394_305" x1="-1766.85" y1="-242" x2="-1501.12" y2="914.397" gradientUnits="userSpaceOnUse">
<stop stop-color="#754672"/>
<stop offset="1" stop-color="#110C1F"/>
</linearGradient>
</defs>
</svg>
