<svg width="247" height="30" viewBox="0 0 247 30" fill="none" xmlns="http://www.w3.org/2000/svg">
<g filter="url(#filter0_d_152_493)">
<path d="M243 0.5C243 3.32342 239.909 6.11919 233.904 8.72769C227.898 11.3362 219.096 13.7063 207.999 15.7028C196.903 17.6993 183.729 19.2829 169.231 20.3634C154.732 21.4439 139.193 22 123.5 22C107.807 22 92.2677 21.4439 77.7693 20.3634C63.2709 19.2829 50.0973 17.6993 39.0007 15.7028C27.9041 13.7063 19.1018 11.3362 13.0964 8.72769C7.09096 6.11919 4 3.32342 4 0.499998L123.5 0.5H243Z" fill="url(#paint0_linear_152_493)"/>
</g>
<defs>
<filter id="filter0_d_152_493" x="0" y="0.5" width="247" height="29.5" filterUnits="userSpaceOnUse" color-interpolation-filters="sRGB">
<feFlood flood-opacity="0" result="BackgroundImageFix"/>
<feColorMatrix in="SourceAlpha" type="matrix" values="0 0 0 0 0 0 0 0 0 0 0 0 0 0 0 0 0 0 127 0" result="hardAlpha"/>
<feOffset dy="4"/>
<feGaussianBlur stdDeviation="2"/>
<feComposite in2="hardAlpha" operator="out"/>
<feColorMatrix type="matrix" values="0 0 0 0 0 0 0 0 0 0 0 0 0 0 0 0 0 0 0.25 0"/>
<feBlend mode="normal" in2="BackgroundImageFix" result="effect1_dropShadow_152_493"/>
<feBlend mode="normal" in="SourceGraphic" in2="effect1_dropShadow_152_493" result="shape"/>
</filter>
<linearGradient id="paint0_linear_152_493" x1="-635.325" y1="-107.717" x2="-540.746" y2="306.968" gradientUnits="userSpaceOnUse">
<stop stop-color="#754672"/>
<stop offset="1" stop-color="#110C1F"/>
</linearGradient>
</defs>
</svg>
