<svg width="50" height="50" viewBox="0 0 50 50" fill="none" xmlns="http://www.w3.org/2000/svg">
<circle cx="25" cy="25" r="25" fill="url(#paint0_linear_394_289)"/>
<path d="M34.7 32.348V38H15.08V33.536L24.512 24.716C25.424 23.852 26.036 23.12 26.348 22.52C26.66 21.896 26.816 21.272 26.816 20.648C26.816 19.832 26.54 19.196 25.988 18.74C25.436 18.284 24.632 18.056 23.576 18.056C22.64 18.056 21.776 18.272 20.984 18.704C20.216 19.112 19.58 19.712 19.076 20.504L13.784 17.552C14.768 15.92 16.148 14.636 17.924 13.7C19.7 12.764 21.8 12.296 24.224 12.296C26.144 12.296 27.836 12.608 29.3 13.232C30.788 13.856 31.94 14.756 32.756 15.932C33.596 17.084 34.016 18.428 34.016 19.964C34.016 21.332 33.716 22.628 33.116 23.852C32.54 25.052 31.412 26.42 29.732 27.956L24.98 32.348H34.7Z" fill="white"/>
<defs>
<linearGradient id="paint0_linear_394_289" x1="-133.75" y1="-100.833" x2="112.917" y2="93.75" gradientUnits="userSpaceOnUse">
<stop stop-color="#1ABDF2"/>
<stop offset="1" stop-color="#754672"/>
</linearGradient>
</defs>
</svg>
