<svg width="30" height="17" viewBox="0 0 30 17" fill="none" xmlns="http://www.w3.org/2000/svg">
<path d="M24.676 14.112C23.9013 14.112 23.2107 13.916 22.604 13.524C22.0067 13.1227 21.5353 12.544 21.19 11.788C20.8447 11.032 20.672 10.136 20.672 9.1C20.672 8.064 20.8447 7.168 21.19 6.412C21.5353 5.656 22.0067 5.082 22.604 4.69C23.2107 4.28867 23.9013 4.088 24.676 4.088C25.4413 4.088 26.1227 4.28867 26.72 4.69C27.3267 5.082 27.8027 5.656 28.148 6.412C28.4933 7.168 28.666 8.064 28.666 9.1C28.666 10.136 28.4933 11.032 28.148 11.788C27.8027 12.544 27.3267 13.1227 26.72 13.524C26.1227 13.916 25.4413 14.112 24.676 14.112ZM24.676 12.866C25.46 12.866 26.0853 12.544 26.552 11.9C27.028 11.256 27.266 10.3227 27.266 9.1C27.266 7.87733 27.028 6.944 26.552 6.3C26.0853 5.656 25.46 5.334 24.676 5.334C23.8827 5.334 23.248 5.656 22.772 6.3C22.3053 6.944 22.072 7.87733 22.072 9.1C22.072 10.3227 22.3053 11.256 22.772 11.9C23.248 12.544 23.8827 12.866 24.676 12.866Z" fill="white"/>
<path d="M12.0236 3.40616L9.60663 1.48123C9.29477 1.16041 8.59307 1 8.12527 1H5.16254C4.22694 1 3.21337 1.72185 2.97947 2.68431L1.10827 8.53929C0.718442 9.66217 1.42014 10.6246 2.58964 10.6246H5.7083C6.1761 10.6246 6.56594 11.0257 6.48797 11.5871L6.09814 14.1537C5.9422 14.8755 6.41 15.6776 7.1117 15.9182C7.73543 16.1588 8.5151 15.838 8.82697 15.3567L12.0236 10.4642" stroke="#1ABDF2" stroke-width="1.5" stroke-miterlimit="10"/>
<path d="M15.9999 3.4061V11.2662C15.9999 12.3891 15.5321 12.7901 14.4406 12.7901H13.6609C12.5694 12.7901 12.1016 12.3891 12.1016 11.2662V3.4061C12.1016 2.28323 12.5694 1.8822 13.6609 1.8822H14.4406C15.5321 1.8822 15.9999 2.28323 15.9999 3.4061Z" stroke="#1ABDF2" stroke-width="1.5" stroke-linecap="round" stroke-linejoin="round"/>
</svg>
