<svg width="42" height="42" viewBox="0 0 42 42" fill="none" xmlns="http://www.w3.org/2000/svg">
<path d="M33.0509 11.3187C32.9307 11.2987 32.7904 11.2987 32.6702 11.3187C29.9055 11.2188 27.7017 8.95903 27.7017 6.15937C27.7017 3.29972 30.0056 1 32.8706 1C35.7355 1 38.0395 3.31972 38.0395 6.15937C38.0194 8.95903 35.8156 11.2188 33.0509 11.3187Z" stroke="#1ABDF2" stroke-width="1.5" stroke-linecap="round" stroke-linejoin="round"/>
<path d="M30.9878 25.8771C33.7326 26.337 36.7578 25.8571 38.8814 24.4372C41.7063 22.5575 41.7063 19.4779 38.8814 17.5981C36.7378 16.1783 33.6725 15.6983 30.9277 16.1782" stroke="#1ABDF2" stroke-width="1.5" stroke-linecap="round" stroke-linejoin="round"/>
<path d="M8.94807 11.3187C9.06828 11.2987 9.20852 11.2987 9.32872 11.3187C12.0935 11.2188 14.2973 8.95903 14.2973 6.15937C14.2973 3.29972 11.9933 1 9.12838 1C6.26345 1 3.95947 3.31972 3.95947 6.15937C3.97951 8.95903 6.18331 11.2188 8.94807 11.3187Z" stroke="#1ABDF2" stroke-width="1.5" stroke-linecap="round" stroke-linejoin="round"/>
<path d="M11.0122 25.877C8.26752 26.337 5.24231 25.857 3.11865 24.4372C0.293783 22.5574 0.293783 19.4778 3.11865 17.598C5.26234 16.1782 8.32762 15.6982 11.0723 16.1782" stroke="#1ABDF2" stroke-width="1.5" stroke-linecap="round" stroke-linejoin="round"/>
<path d="M21.0269 26.2568C20.9067 26.2368 20.7665 26.2368 20.6463 26.2568C17.8815 26.1568 15.6777 23.8971 15.6777 21.0975C15.6777 18.2378 17.9817 15.9381 20.8466 15.9381C23.7116 15.9381 26.0155 18.2578 26.0155 21.0975C25.9955 23.8971 23.7917 26.1768 21.0269 26.2568Z" stroke="#1ABDF2" stroke-width="1.5" stroke-linecap="round" stroke-linejoin="round"/>
<path d="M15.1978 32.5562C12.3729 34.4359 12.3729 37.5156 15.1978 39.3953C18.4033 41.5351 23.6523 41.5351 26.8578 39.3953C29.6827 37.5156 29.6827 34.4359 26.8578 32.5562C23.6723 30.4364 18.4033 30.4364 15.1978 32.5562Z" stroke="#1ABDF2" stroke-width="1.5" stroke-linecap="round" stroke-linejoin="round"/>
</svg>
