<svg width="64" height="64" viewBox="0 0 64 64" fill="none" xmlns="http://www.w3.org/2000/svg">
<g filter="url(#filter0_d_421_227)">
<rect x="1" y="1" width="57.0894" height="57.0894" rx="18" fill="url(#paint0_linear_421_227)"/>
</g>
<path fill-rule="evenodd" clip-rule="evenodd" d="M26.291 39.5312H33.7095C36.9259 39.5922 39.5821 36.9805 39.6431 33.6971V27.8653C39.5821 24.5819 36.9259 21.9702 33.7095 22.0312H26.291C23.0746 21.9702 20.4184 24.5819 20.3574 27.8653V33.6993C20.4196 36.9819 23.0754 39.5922 26.291 39.5312Z" stroke="#1ABDF2" stroke-width="1.5" stroke-linecap="round" stroke-linejoin="round"/>
<path d="M24.2241 9.63079C24.0202 9.27025 23.5626 9.14326 23.2021 9.34717C22.8415 9.55108 22.7146 10.0087 22.9185 10.3692L24.2241 9.63079ZM26.6299 16.9317C26.8338 17.2923 27.2914 17.4192 27.6519 17.2153C28.0125 17.0114 28.1394 16.5538 27.9355 16.1933L26.6299 16.9317ZM37.0815 10.3692C37.2854 10.0087 37.1584 9.55108 36.7979 9.34717C36.4373 9.14326 35.9797 9.27025 35.7758 9.63079L37.0815 10.3692ZM32.0644 16.1933C31.8605 16.5538 31.9875 17.0114 32.348 17.2153C32.7086 17.4192 33.1662 17.2923 33.3701 16.9317L32.0644 16.1933ZM32.7171 15.8125C32.3029 15.8125 31.9671 16.1483 31.9671 16.5625C31.9671 16.9767 32.3029 17.3125 32.7171 17.3125V15.8125ZM35.7686 16.5625L35.7709 15.8125H35.7686V16.5625ZM45 26.0409L44.25 26.0389V26.0409H45ZM45 35.5194H44.25L44.25 35.5216L45 35.5194ZM42.3077 42.2114L41.7703 41.6882L42.3077 42.2114ZM35.7686 45V45.75L35.7709 45.75L35.7686 45ZM24.2314 45L24.2291 45.75H24.2314V45ZM15 35.5216L15.75 35.5236V35.5216H15ZM15 26.0409H15.75L15.75 26.0389L15 26.0409ZM24.2314 16.5625V15.8125L24.2291 15.8125L24.2314 16.5625ZM27.2829 17.3125C27.6971 17.3125 28.0329 16.9767 28.0329 16.5625C28.0329 16.1483 27.6971 15.8125 27.2829 15.8125V17.3125ZM32.717 17.3125C33.1312 17.3125 33.467 16.9767 33.467 16.5625C33.467 16.1483 33.1312 15.8125 32.717 15.8125V17.3125ZM27.2827 15.8125C26.8685 15.8125 26.5327 16.1483 26.5327 16.5625C26.5327 16.9767 26.8685 17.3125 27.2827 17.3125V15.8125ZM22.9185 10.3692L26.6299 16.9317L27.9355 16.1933L24.2241 9.63079L22.9185 10.3692ZM35.7758 9.63079L32.0644 16.1933L33.3701 16.9317L37.0815 10.3692L35.7758 9.63079ZM32.7171 17.3125H35.7686V15.8125H32.7171V17.3125ZM35.7663 17.3125C40.4506 17.3269 44.2631 21.2189 44.25 26.0389L45.75 26.043C45.7653 20.4241 41.3124 15.8295 35.7709 15.8125L35.7663 17.3125ZM44.25 26.0409V35.5194H45.75V26.0409H44.25ZM44.25 35.5216C44.2568 37.8345 43.3631 40.0524 41.7703 41.6882L42.845 42.7346C44.7147 40.8145 45.7579 38.218 45.75 35.5172L44.25 35.5216ZM41.7703 41.6882C40.1781 43.3235 38.018 44.2431 35.7663 44.25L35.7709 45.75C38.4305 45.7418 40.9749 44.6553 42.845 42.7346L41.7703 41.6882ZM35.7686 44.25H24.2314V45.75H35.7686V44.25ZM24.2337 44.25C19.5494 44.2356 15.7369 40.3436 15.75 35.5236L14.25 35.5195C14.2347 41.1384 18.6876 45.733 24.2291 45.75L24.2337 44.25ZM15.75 35.5216V26.0409H14.25V35.5216H15.75ZM15.75 26.0389C15.7369 21.2189 19.5494 17.3269 24.2337 17.3125L24.2291 15.8125C18.6876 15.8295 14.2347 20.4241 14.25 26.043L15.75 26.0389ZM24.2314 17.3125H27.2829V15.8125H24.2314V17.3125ZM32.717 15.8125H27.2827V17.3125H32.717V15.8125Z" fill="#1ABDF2"/>
<defs>
<filter id="filter0_d_421_227" x="0" y="0" width="63.0894" height="63.0894" filterUnits="userSpaceOnUse" color-interpolation-filters="sRGB">
<feFlood flood-opacity="0" result="BackgroundImageFix"/>
<feColorMatrix in="SourceAlpha" type="matrix" values="0 0 0 0 0 0 0 0 0 0 0 0 0 0 0 0 0 0 127 0" result="hardAlpha"/>
<feOffset dx="2" dy="2"/>
<feGaussianBlur stdDeviation="1.5"/>
<feComposite in2="hardAlpha" operator="out"/>
<feColorMatrix type="matrix" values="0 0 0 0 0.101961 0 0 0 0 0.741176 0 0 0 0 0.94902 0 0 0 1 0"/>
<feBlend mode="normal" in2="BackgroundImageFix" result="effect1_dropShadow_421_227"/>
<feBlend mode="normal" in="SourceGraphic" in2="effect1_dropShadow_421_227" result="shape"/>
</filter>
<linearGradient id="paint0_linear_421_227" x1="200" y1="220" x2="-108.5" y2="-120.5" gradientUnits="userSpaceOnUse">
<stop stop-color="#18102E"/>
<stop offset="0.436687" stop-color="#41284C"/>
<stop offset="1" stop-color="#754672"/>
</linearGradient>
</defs>
</svg>
