<svg width="151" height="45" viewBox="0 0 151 45" fill="none" xmlns="http://www.w3.org/2000/svg">
<g filter="url(#filter0_d_425_701)">
<rect x="2" y="1" width="143" height="37" rx="14" stroke="#1ABDF2" stroke-width="2" shape-rendering="crispEdges"/>
</g>
<path d="M42.43 17.02V19.61H46.966V21.43H42.43V25H40.162V15.2H47.568V17.02H42.43ZM55.1473 22.9H50.5973L49.7293 25H47.4052L51.7733 15.2H54.0133L58.3953 25H56.0153L55.1473 22.9ZM54.4333 21.178L52.8793 17.426L51.3253 21.178H54.4333ZM68.3008 15.2L64.0588 25H61.8188L57.5908 15.2H60.0408L63.0228 22.2L66.0468 15.2H68.3008ZM73.742 25.168C72.7247 25.168 71.8053 24.9487 70.984 24.51C70.172 24.0713 69.5327 23.4693 69.066 22.704C68.6087 21.9293 68.38 21.0613 68.38 20.1C68.38 19.1387 68.6087 18.2753 69.066 17.51C69.5327 16.7353 70.172 16.1287 70.984 15.69C71.8053 15.2513 72.7247 15.032 73.742 15.032C74.7593 15.032 75.674 15.2513 76.486 15.69C77.298 16.1287 77.9373 16.7353 78.404 17.51C78.8707 18.2753 79.104 19.1387 79.104 20.1C79.104 21.0613 78.8707 21.9293 78.404 22.704C77.9373 23.4693 77.298 24.0713 76.486 24.51C75.674 24.9487 74.7593 25.168 73.742 25.168ZM73.742 23.236C74.3207 23.236 74.8433 23.1053 75.31 22.844C75.7767 22.5733 76.1407 22.2 76.402 21.724C76.6727 21.248 76.808 20.7067 76.808 20.1C76.808 19.4933 76.6727 18.952 76.402 18.476C76.1407 18 75.7767 17.6313 75.31 17.37C74.8433 17.0993 74.3207 16.964 73.742 16.964C73.1633 16.964 72.6407 17.0993 72.174 17.37C71.7073 17.6313 71.3387 18 71.068 18.476C70.8067 18.952 70.676 19.4933 70.676 20.1C70.676 20.7067 70.8067 21.248 71.068 21.724C71.3387 22.2 71.7073 22.5733 72.174 22.844C72.6407 23.1053 73.1633 23.236 73.742 23.236ZM87.0525 25L85.1625 22.27H85.0505H83.0765V25H80.8085V15.2H85.0505C85.9185 15.2 86.6698 15.3447 87.3045 15.634C87.9485 15.9233 88.4432 16.334 88.7885 16.866C89.1338 17.398 89.3065 18.028 89.3065 18.756C89.3065 19.484 89.1292 20.114 88.7745 20.646C88.4292 21.1687 87.9345 21.57 87.2905 21.85L89.4885 25H87.0525ZM87.0105 18.756C87.0105 18.2053 86.8332 17.7853 86.4785 17.496C86.1238 17.1973 85.6058 17.048 84.9245 17.048H83.0765V20.464H84.9245C85.6058 20.464 86.1238 20.3147 86.4785 20.016C86.8332 19.7173 87.0105 19.2973 87.0105 18.756ZM91.1034 15.2H93.3714V25H91.1034V15.2ZM97.7272 17.048H94.5912V15.2H103.131V17.048H99.9952V25H97.7272V17.048ZM110.313 22.9H105.763L104.895 25H102.571L106.939 15.2H109.179L113.561 25H111.181L110.313 22.9ZM109.599 21.178L108.045 17.426L106.491 21.178H109.599ZM120.822 25L118.932 22.27H118.82H116.846V25H114.578V15.2H118.82C119.688 15.2 120.439 15.3447 121.074 15.634C121.718 15.9233 122.213 16.334 122.558 16.866C122.903 17.398 123.076 18.028 123.076 18.756C123.076 19.484 122.899 20.114 122.544 20.646C122.199 21.1687 121.704 21.57 121.06 21.85L123.258 25H120.822ZM120.78 18.756C120.78 18.2053 120.603 17.7853 120.248 17.496C119.893 17.1973 119.375 17.048 118.694 17.048H116.846V20.464H118.694C119.375 20.464 119.893 20.3147 120.248 20.016C120.603 19.7173 120.78 19.2973 120.78 18.756Z" fill="white"/>
<path d="M24.7299 10.51L26.4899 14.03C26.7299 14.52 27.3699 14.99 27.9099 15.08L31.0999 15.61C33.1399 15.95 33.6199 17.43 32.1499 18.89L29.6699 21.37C29.2499 21.79 29.0199 22.6 29.1499 23.18L29.8599 26.25C30.4199 28.68 29.1299 29.62 26.9799 28.35L23.9899 26.58C23.4499 26.26 22.5599 26.26 22.0099 26.58L19.0199 28.35C16.8799 29.62 15.5799 28.67 16.1399 26.25L16.8499 23.18C16.9799 22.6 16.7499 21.79 16.3299 21.37L13.8499 18.89C12.3899 17.43 12.8599 15.95 14.8999 15.61L18.0899 15.08C18.6199 14.99 19.2599 14.52 19.4999 14.03L21.2599 10.51C22.2199 8.6 23.7799 8.6 24.7299 10.51Z" stroke="#1ABDF2" stroke-width="1.5" stroke-linecap="round" stroke-linejoin="round"/>
<defs>
<filter id="filter0_d_425_701" x="0" y="0" width="151" height="45" filterUnits="userSpaceOnUse" color-interpolation-filters="sRGB">
<feFlood flood-opacity="0" result="BackgroundImageFix"/>
<feColorMatrix in="SourceAlpha" type="matrix" values="0 0 0 0 0 0 0 0 0 0 0 0 0 0 0 0 0 0 127 0" result="hardAlpha"/>
<feOffset dx="2" dy="3"/>
<feGaussianBlur stdDeviation="1.5"/>
<feComposite in2="hardAlpha" operator="out"/>
<feColorMatrix type="matrix" values="0 0 0 0 0 0 0 0 0 0 0 0 0 0 0 0 0 0 0.25 0"/>
<feBlend mode="normal" in2="BackgroundImageFix" result="effect1_dropShadow_425_701"/>
<feBlend mode="normal" in="SourceGraphic" in2="effect1_dropShadow_425_701" result="shape"/>
</filter>
</defs>
</svg>
