<svg width="42" height="42" viewBox="0 0 42 42" fill="none" xmlns="http://www.w3.org/2000/svg">
<path fill-rule="evenodd" clip-rule="evenodd" d="M28.6923 1H13.3077C6.51034 1 1 6.11675 1 12.4286V29.5714C1 35.8833 6.51034 41 13.3077 41H28.6923C35.4897 41 41 35.8833 41 29.5714V12.4286C41 6.11675 35.4897 1 28.6923 1Z" stroke="#1ABDF2" stroke-width="1.5" stroke-linecap="round" stroke-linejoin="round"/>
<path d="M30.2301 13.1786C30.6443 13.1786 30.9801 12.8428 30.9801 12.4286C30.9801 12.0143 30.6443 11.6786 30.2301 11.6786V13.1786ZM11.7686 11.6786C11.3543 11.6786 11.0186 12.0143 11.0186 12.4286C11.0186 12.8428 11.3543 13.1786 11.7686 13.1786V11.6786ZM30.2301 21.75C30.6443 21.75 30.9801 21.4142 30.9801 21C30.9801 20.5858 30.6443 20.25 30.2301 20.25V21.75ZM11.7686 20.25C11.3543 20.25 11.0186 20.5858 11.0186 21C11.0186 21.4142 11.3543 21.75 11.7686 21.75V20.25ZM20.9993 30.3214C21.4135 30.3214 21.7493 29.9856 21.7493 29.5714C21.7493 29.1572 21.4135 28.8214 20.9993 28.8214V30.3214ZM11.7686 28.8214C11.3543 28.8214 11.0186 29.1572 11.0186 29.5714C11.0186 29.9856 11.3543 30.3214 11.7686 30.3214V28.8214ZM30.2301 11.6786H11.7686V13.1786H30.2301V11.6786ZM30.2301 20.25H11.7686V21.75H30.2301V20.25ZM20.9993 28.8214H11.7686V30.3214H20.9993V28.8214Z" fill="#1ABDF2"/>
</svg>
