<svg width="28" height="28" viewBox="0 0 28 28" fill="none" xmlns="http://www.w3.org/2000/svg">
<path d="M14 26.5C20.9036 26.5 26.5 20.9036 26.5 14C26.5 7.09644 20.9036 1.5 14 1.5C7.09644 1.5 1.5 7.09644 1.5 14C1.5 20.9036 7.09644 26.5 14 26.5Z" stroke="#1ABDF2" stroke-width="2" stroke-linecap="round" stroke-linejoin="round"/>
<path d="M17.75 10.6925C17.0782 9.93088 16.1904 9.39189 15.2047 9.14724C14.219 8.9026 13.1822 8.9639 12.2323 9.323C11.2823 9.6821 10.4642 10.322 9.88686 11.1574C9.3095 11.9929 9.00024 12.9844 9.00024 14C9.00024 15.0156 9.3095 16.0071 9.88686 16.8426C10.4642 17.678 11.2823 18.3179 12.2323 18.677C13.1822 19.0361 14.219 19.0974 15.2047 18.8528C16.1904 18.6081 17.0782 18.0691 17.75 17.3075" stroke="#1ABDF2" stroke-width="2" stroke-linecap="round" stroke-linejoin="round"/>
</svg>
