<svg width="44" height="44" viewBox="0 0 44 44" fill="none" xmlns="http://www.w3.org/2000/svg">
<path d="M0.538849 13.9694C0.35153 14.7764 0.853857 15.5824 1.66083 15.7697C2.4678 15.957 3.27383 15.4547 3.46115 14.6477L0.538849 13.9694ZM4.85714 2V0.5C4.15938 0.5 3.55377 0.981138 3.39599 1.66083L4.85714 2ZM16.2857 3.5C17.1141 3.5 17.7857 2.82843 17.7857 2C17.7857 1.17157 17.1141 0.5 16.2857 0.5V3.5ZM3.5 14.3086C3.5 13.4802 2.82843 12.8086 2 12.8086C1.17157 12.8086 0.5 13.4802 0.5 14.3086H3.5ZM2 42H0.5C0.5 42.8285 1.17157 43.5 2 43.5L2 42ZM42 42V43.5C42.8284 43.5 43.5 42.8285 43.5 42H42ZM43.5 14.3086C43.5 13.4802 42.8284 12.8086 42 12.8086C41.1716 12.8086 40.5 13.4802 40.5 14.3086H43.5ZM2 12.8086C1.17157 12.8086 0.5 13.4802 0.5 14.3086C0.5 15.137 1.17157 15.8086 2 15.8086V12.8086ZM16.2857 15.8086C17.1141 15.8086 17.7857 15.137 17.7857 14.3086C17.7857 13.4802 17.1141 12.8086 16.2857 12.8086V15.8086ZM16.2861 12.8086C15.4577 12.8086 14.7861 13.4802 14.7861 14.3086C14.7861 15.137 15.4577 15.8086 16.2861 15.8086V12.8086ZM27.7147 15.8086C28.5431 15.8086 29.2147 15.137 29.2147 14.3086C29.2147 13.4802 28.5431 12.8086 27.7147 12.8086V15.8086ZM14.786 14.3086C14.786 15.137 15.4576 15.8086 16.286 15.8086C17.1144 15.8086 17.786 15.137 17.786 14.3086H14.786ZM17.786 2C17.786 1.17157 17.1144 0.5 16.286 0.5C15.4576 0.5 14.786 1.17157 14.786 2H17.786ZM17.7861 14.3086C17.7861 13.4802 17.1146 12.8086 16.2861 12.8086C15.4577 12.8086 14.7861 13.4802 14.7861 14.3086H17.7861ZM16.2861 24.8572H14.7861C14.7861 25.377 15.0553 25.8598 15.4975 26.1332C15.9398 26.4065 16.492 26.4313 16.957 26.1988L16.2861 24.8572ZM22.0004 22L22.6712 20.6584C22.2489 20.4473 21.7519 20.4473 21.3296 20.6584L22.0004 22ZM27.7147 24.8572L27.0439 26.1988C27.5089 26.4313 28.0611 26.4065 28.5033 26.1332C28.9455 25.8598 29.2147 25.377 29.2147 24.8572H27.7147ZM29.2147 14.3086C29.2147 13.4802 28.5431 12.8086 27.7147 12.8086C26.8863 12.8086 26.2147 13.4802 26.2147 14.3086H29.2147ZM16.2861 0.5C15.4577 0.5 14.7861 1.17157 14.7861 2C14.7861 2.82843 15.4577 3.5 16.2861 3.5V0.5ZM27.7147 3.5C28.5431 3.5 29.2147 2.82843 29.2147 2C29.2147 1.17157 28.5431 0.5 27.7147 0.5V3.5ZM40.5384 14.6477C40.7257 15.4547 41.5318 15.957 42.3388 15.7697C43.1457 15.5824 43.6481 14.7764 43.4607 13.9694L40.5384 14.6477ZM39.1424 2L40.6036 1.66083C40.4458 0.981138 39.8402 0.5 39.1424 0.5V2ZM27.7139 0.5C26.8854 0.5 26.2139 1.17157 26.2139 2C26.2139 2.82843 26.8854 3.5 27.7139 3.5V0.5ZM41.9996 15.8086C42.828 15.8086 43.4996 15.137 43.4996 14.3086C43.4996 13.4802 42.828 12.8086 41.9996 12.8086V15.8086ZM27.7139 12.8086C26.8854 12.8086 26.2139 13.4802 26.2139 14.3086C26.2139 15.137 26.8854 15.8086 27.7139 15.8086V12.8086ZM26.2147 14.3086C26.2147 15.137 26.8863 15.8086 27.7147 15.8086C28.5431 15.8086 29.2147 15.137 29.2147 14.3086H26.2147ZM29.2147 2C29.2147 1.17157 28.5431 0.5 27.7147 0.5C26.8863 0.5 26.2147 1.17157 26.2147 2H29.2147ZM3.46115 14.6477L6.31829 2.33917L3.39599 1.66083L0.538849 13.9694L3.46115 14.6477ZM4.85714 3.5H16.2857V0.5H4.85714V3.5ZM0.5 14.3086V42H3.5V14.3086H0.5ZM2 43.5H42V40.5H2V43.5ZM43.5 42V14.3086H40.5V42H43.5ZM2 15.8086H16.2857V12.8086H2V15.8086ZM16.2861 15.8086H27.7147V12.8086H16.2861V15.8086ZM17.786 14.3086V2H14.786V14.3086H17.786ZM14.7861 14.3086V24.8572H17.7861V14.3086H14.7861ZM16.957 26.1988L22.6712 23.3417L21.3296 20.6584L15.6153 23.5155L16.957 26.1988ZM21.3296 23.3417L27.0439 26.1988L28.3855 23.5155L22.6712 20.6584L21.3296 23.3417ZM29.2147 24.8572V14.3086H26.2147V24.8572H29.2147ZM16.2861 3.5H27.7147V0.5H16.2861V3.5ZM43.4607 13.9694L40.6036 1.66083L37.6813 2.33917L40.5384 14.6477L43.4607 13.9694ZM39.1424 0.5H27.7139V3.5H39.1424V0.5ZM41.9996 12.8086H27.7139V15.8086H41.9996V12.8086ZM29.2147 14.3086V2H26.2147V14.3086H29.2147Z" fill="#1ABDF2"/>
</svg>
