<svg width="19" height="21" viewBox="0 0 19 21" fill="none" xmlns="http://www.w3.org/2000/svg">
<path d="M14.6211 5.9014C14.5701 5.8919 14.5105 5.8919 14.4594 5.9014C13.2843 5.8539 12.3477 4.78054 12.3477 3.4507C12.3477 2.09237 13.3269 1 14.5445 1C15.7621 1 16.7414 2.10187 16.7414 3.4507C16.7329 4.78054 15.7962 5.8539 14.6211 5.9014Z" stroke="#1ABDF2" stroke-width="1.5" stroke-linecap="round" stroke-linejoin="round"/>
<path d="M13.7443 12.8166C14.9108 13.0351 16.1966 12.8071 17.0992 12.1327C18.2998 11.2398 18.2998 9.77697 17.0992 8.88408C16.1881 8.20967 14.8853 7.98169 13.7188 8.20966" stroke="#1ABDF2" stroke-width="1.5" stroke-linecap="round" stroke-linejoin="round"/>
<path d="M4.37804 5.9014C4.42913 5.8919 4.48873 5.8919 4.53982 5.9014C5.71488 5.8539 6.65152 4.78054 6.65152 3.4507C6.65152 2.09237 5.67231 1 4.45467 1C3.23703 1 2.25781 2.10187 2.25781 3.4507C2.26633 4.78054 3.20297 5.8539 4.37804 5.9014Z" stroke="#1ABDF2" stroke-width="1.5" stroke-linecap="round" stroke-linejoin="round"/>
<path d="M5.25534 12.8166C4.0888 13.0351 2.80304 12.8071 1.90046 12.1327C0.699848 11.2398 0.699848 9.77697 1.90046 8.88408C2.81155 8.20967 4.11434 7.98169 5.28089 8.20966" stroke="#1ABDF2" stroke-width="1.5" stroke-linecap="round" stroke-linejoin="round"/>
<path d="M9.51177 12.997C9.46068 12.9875 9.40108 12.9875 9.34999 12.997C8.17492 12.9495 7.23828 11.8761 7.23828 10.5463C7.23828 9.18795 8.2175 8.09558 9.43514 8.09558C10.6528 8.09558 11.632 9.19745 11.632 10.5463C11.6235 11.8761 10.6868 12.959 9.51177 12.997Z" stroke="#1ABDF2" stroke-width="1.5" stroke-linecap="round" stroke-linejoin="round"/>
<path d="M7.03522 15.9892C5.83461 16.8821 5.83461 18.3449 7.03522 19.2378C8.39761 20.2541 10.6285 20.2541 11.9909 19.2378C13.1915 18.3449 13.1915 16.8821 11.9909 15.9892C10.637 14.9823 8.39761 14.9823 7.03522 15.9892Z" stroke="#1ABDF2" stroke-width="1.5" stroke-linecap="round" stroke-linejoin="round"/>
</svg>
