<svg width="42" height="42" viewBox="0 0 42 42" fill="none" xmlns="http://www.w3.org/2000/svg">
<path d="M15 17C17.2091 17 19 15.2091 19 13C19 10.7909 17.2091 9 15 9C12.7909 9 11 10.7909 11 13C11 15.2091 12.7909 17 15 17Z" stroke="#1ABDF2" stroke-width="1.5" stroke-linecap="round" stroke-linejoin="round"/>
<path d="M21 1H15C5 1 1 5 1 15V27C1 37 5 41 15 41H27C37 41 41 37 41 27V19" stroke="#1ABDF2" stroke-width="1.5" stroke-linecap="round" stroke-linejoin="round"/>
<path d="M29.2393 7.2198C28.5793 5.1398 29.3593 2.5598 31.5193 1.8598C32.6593 1.4998 34.0793 1.7998 34.8793 2.8998C35.6393 1.7598 37.0993 1.4798 38.2393 1.8598C40.4193 2.5598 41.1993 5.1398 40.5393 7.2198C39.4993 10.4998 35.8993 12.2198 34.8993 12.2198C33.8793 12.2198 30.2993 10.5398 29.2393 7.2198Z" stroke="#1ABDF2" stroke-width="1.5" stroke-linecap="round" stroke-linejoin="round"/>
<path d="M2.33984 34.9001L12.1998 28.2801C13.7798 27.2201 16.0598 27.3401 17.4798 28.5601L18.1398 29.1401C19.6998 30.4801 22.2198 30.4801 23.7798 29.1401L32.0998 22.0001C33.6598 20.6601 36.1798 20.6601 37.7398 22.0001L40.9998 24.8001" stroke="#1ABDF2" stroke-width="1.5" stroke-linecap="round" stroke-linejoin="round"/>
</svg>
