<svg width="19" height="19" viewBox="0 0 19 19" fill="none" xmlns="http://www.w3.org/2000/svg">
<path d="M6.95 18H12.05C16.3 18 18 16.3 18 12.05V6.95C18 2.7 16.3 1 12.05 1H6.95C2.7 1 1 2.7 1 6.95V12.05C1 16.3 2.7 18 6.95 18Z" stroke="#1ABDF2" stroke-width="1.5" stroke-linecap="round" stroke-linejoin="round"/>
<path d="M6.95 7.80002C7.88888 7.80002 8.65 7.03891 8.65 6.10002C8.65 5.16114 7.88888 4.40002 6.95 4.40002C6.01112 4.40002 5.25 5.16114 5.25 6.10002C5.25 7.03891 6.01112 7.80002 6.95 7.80002Z" stroke="#1ABDF2" stroke-width="1.5" stroke-linecap="round" stroke-linejoin="round"/>
<path d="M1.57031 15.4076L5.76081 12.5941C6.43231 12.1436 7.40131 12.1945 8.00481 12.713L8.28531 12.9595C8.94831 13.529 10.0193 13.529 10.6823 12.9595L14.2183 9.92505C14.8813 9.35555 15.9523 9.35555 16.6153 9.92505L18.0008 11.115" stroke="#1ABDF2" stroke-width="1.5" stroke-linecap="round" stroke-linejoin="round"/>
</svg>
