<svg width="25" height="25" viewBox="0 0 25 25" fill="none" xmlns="http://www.w3.org/2000/svg">
<path d="M12.5 25C19.4036 25 25 19.4036 25 12.5C25 5.59644 19.4036 0 12.5 0C5.59644 0 0 5.59644 0 12.5C0 19.4036 5.59644 25 12.5 25Z" fill="#1ABDF2"/>
<path d="M12.5002 14.5834C9.98425 14.5834 8.3148 14.2903 6.25022 13.8889C5.77869 13.798 4.86133 13.8889 4.86133 15.2778C4.86133 18.0556 8.0523 21.5278 12.5002 21.5278C16.9474 21.5278 20.1391 18.0556 20.1391 15.2778C20.1391 13.8889 19.2217 13.7973 18.7502 13.8889C16.6856 14.2903 15.0162 14.5834 12.5002 14.5834Z" fill="black"/>
<path d="M6.25 15.2777C6.25 15.2777 8.33333 15.9722 12.5 15.9722C16.6667 15.9722 18.75 15.2777 18.75 15.2777C18.75 15.2777 17.3611 18.0555 12.5 18.0555C7.63889 18.0555 6.25 15.2777 6.25 15.2777Z" fill="black"/>
<path d="M8.33377 11.8054C9.29259 11.8054 10.0699 10.7173 10.0699 9.37489C10.0699 8.03253 9.29259 6.94434 8.33377 6.94434C7.37494 6.94434 6.59766 8.03253 6.59766 9.37489C6.59766 10.7173 7.37494 11.8054 8.33377 11.8054Z" fill="black"/>
<path d="M16.6658 11.8054C17.6246 11.8054 18.4019 10.7173 18.4019 9.37489C18.4019 8.03253 17.6246 6.94434 16.6658 6.94434C15.707 6.94434 14.9297 8.03253 14.9297 9.37489C14.9297 10.7173 15.707 11.8054 16.6658 11.8054Z" fill="black"/>
</svg>
