<svg width="30" height="30" viewBox="0 0 30 30" fill="none" xmlns="http://www.w3.org/2000/svg">
<path d="M26.3142 24.6958C13.5531 30.5888 5.63572 25.66 0.565159 22.6636C0.251567 22.475 -0.281539 22.7079 0.181087 23.2234C1.86983 25.2104 7.40457 30.0001 14.629 30.0001C21.8584 30.0001 26.1592 26.1737 26.6973 25.5045C27.2316 24.8417 26.8525 24.4771 26.3142 24.6958ZM29.8978 22.7751C29.5563 22.3422 27.8141 22.2629 26.7184 22.3919C25.6227 22.5208 23.974 23.1695 24.1172 23.5603C24.1907 23.7067 24.3407 23.641 25.0946 23.5754C25.8506 23.5021 27.9681 23.2439 28.4093 23.8025C28.8505 24.3611 27.7334 27.0513 27.5297 27.4843C27.3322 27.9172 27.6052 28.029 27.9759 27.7407C28.3416 27.4523 29.0036 26.7058 29.4479 25.6491C29.8891 24.5871 30.1583 23.1065 29.8978 22.7751Z" fill="#FF9900"/>
<path fill-rule="evenodd" clip-rule="evenodd" d="M17.7357 12.6713C17.7357 14.2176 17.7761 15.5071 16.9707 16.8801C16.3205 17.9966 15.2909 18.6833 14.1406 18.6833C12.5698 18.6833 11.6567 17.5221 11.6567 15.8087C11.6567 12.4258 14.7802 11.8118 17.737 11.8118L17.7357 12.6713ZM21.8587 22.3451C21.5882 22.5795 21.1973 22.5964 20.8924 22.44C19.5347 21.3461 19.2931 20.8381 18.5455 19.7941C16.3019 22.0158 14.7141 22.6802 11.8032 22.6802C8.36336 22.6802 5.68262 20.6203 5.68262 16.495C5.68262 13.2742 7.48344 11.0805 10.0431 10.0088C12.2637 9.05978 15.3642 8.89226 17.7342 8.62984V8.11765C17.7342 7.17401 17.809 6.05773 17.2396 5.24274C16.7391 4.51151 15.784 4.21022 14.9441 4.21022C13.3852 4.21022 11.9945 4.98604 11.653 6.59372C11.5837 6.95105 11.3133 7.30266 10.9454 7.31923L6.97611 6.90646C6.64233 6.83355 6.27441 6.57143 6.36631 6.0746C7.28194 1.40672 11.625 0 15.5136 0C17.5041 0 20.1041 0.512192 21.6746 1.97616C23.6651 3.77908 23.4754 6.18487 23.4754 8.80308V14.988C23.4754 16.8469 24.2693 17.6616 25.017 18.6667C25.2815 19.0237 25.3392 19.4537 25.0055 19.7212C24.1715 20.3967 22.6874 21.6528 21.8695 22.356L21.8581 22.3448" fill="black"/>
<path d="M26.3142 24.6958C13.5531 30.5888 5.63572 25.66 0.565159 22.6636C0.251567 22.475 -0.281539 22.7079 0.181087 23.2234C1.86983 25.2104 7.40457 30.0001 14.629 30.0001C21.8584 30.0001 26.1592 26.1737 26.6973 25.5045C27.2316 24.8417 26.8525 24.4771 26.3142 24.6958ZM29.8978 22.7751C29.5563 22.3422 27.8141 22.2629 26.7184 22.3919C25.6227 22.5208 23.974 23.1695 24.1172 23.5603C24.1907 23.7067 24.3407 23.641 25.0946 23.5754C25.8506 23.5021 27.9681 23.2439 28.4093 23.8025C28.8505 24.3611 27.7334 27.0513 27.5297 27.4843C27.3322 27.9172 27.6052 28.029 27.9759 27.7407C28.3416 27.4523 29.0036 26.7058 29.4479 25.6491C29.8891 24.5871 30.1583 23.1065 29.8978 22.7751Z" fill="#FF9900"/>
<path fill-rule="evenodd" clip-rule="evenodd" d="M17.7357 12.6713C17.7357 14.2176 17.7761 15.5071 16.9707 16.8801C16.3205 17.9966 15.2909 18.6833 14.1406 18.6833C12.5698 18.6833 11.6567 17.5221 11.6567 15.8087C11.6567 12.4258 14.7802 11.8118 17.737 11.8118L17.7357 12.6713ZM21.8587 22.3451C21.5882 22.5795 21.1973 22.5964 20.8924 22.44C19.5347 21.3461 19.2931 20.8381 18.5455 19.7941C16.3019 22.0158 14.7141 22.6802 11.8032 22.6802C8.36336 22.6802 5.68262 20.6203 5.68262 16.495C5.68262 13.2742 7.48344 11.0805 10.0431 10.0088C12.2637 9.05978 15.3642 8.89226 17.7342 8.62984V8.11765C17.7342 7.17401 17.809 6.05773 17.2396 5.24274C16.7391 4.51151 15.784 4.21022 14.9441 4.21022C13.3852 4.21022 11.9945 4.98604 11.653 6.59372C11.5837 6.95105 11.3133 7.30266 10.9454 7.31923L6.97611 6.90646C6.64233 6.83355 6.27441 6.57143 6.36631 6.0746C7.28194 1.40672 11.625 0 15.5136 0C17.5041 0 20.1041 0.512192 21.6746 1.97616C23.6651 3.77908 23.4754 6.18487 23.4754 8.80308V14.988C23.4754 16.8469 24.2693 17.6616 25.017 18.6667C25.2815 19.0237 25.3392 19.4537 25.0055 19.7212C24.1715 20.3967 22.6874 21.6528 21.8695 22.356L21.8581 22.3448" fill="black"/>
</svg>
