<svg width="44" height="44" viewBox="0 0 44 44" fill="none" xmlns="http://www.w3.org/2000/svg">
<path fill-rule="evenodd" clip-rule="evenodd" d="M21.4263 34.5706L27.9984 27.9984L34.5706 21.4263C36.0515 19.8964 36.2802 17.5467 35.1221 15.7599C34.0012 13.8196 31.9885 12.5642 29.7529 12.411C26.7383 12.471 23.2893 13.0768 21.1377 10.9251L13.2997 3.08424C11.8897 1.65548 9.58977 1.63632 8.15624 3.04138L3.04138 8.14766C1.63632 9.5812 1.65548 11.8812 3.08424 13.2911L10.9251 21.1405C13.0768 23.2922 12.4681 26.7412 12.411 29.7558C12.5651 31.9903 13.8204 34.0018 15.7599 35.1221C17.5467 36.2801 19.8964 36.0514 21.4263 34.5706Z" stroke="#1ABDF2" stroke-width="3" stroke-linecap="round" stroke-linejoin="round"/>
<path d="M27.999 27.9984L42.0006 42" stroke="#1ABDF2" stroke-width="3" stroke-linecap="round"/>
</svg>
