<svg width="44" height="44" viewBox="0 0 44 44" fill="none" xmlns="http://www.w3.org/2000/svg">
<path fill-rule="evenodd" clip-rule="evenodd" d="M2.00181 32.3504C1.89352 37.5823 6.65043 41.9015 12.6294 42H31.3706C37.3496 41.9015 42.1065 37.5823 41.9982 32.3504L40.7497 20.6308C40.4328 16.2126 36.8996 12.4759 31.9991 11.3762C30.9779 11.1162 29.92 10.9833 28.8565 10.9812H15.1435C14.08 10.9833 13.0221 11.1162 12.0009 11.3762C7.10342 12.4762 3.57202 16.2102 3.25313 20.6258L2.00181 32.3504Z" stroke="#1ABDF2" stroke-width="3" stroke-linecap="round" stroke-linejoin="round"/>
<path d="M30.5001 15.471C30.5001 16.2995 31.1717 16.971 32.0001 16.971C32.8286 16.971 33.5001 16.2995 33.5001 15.471H30.5001ZM32.0001 10.4187H33.5001C33.5001 10.4074 33.5 10.396 33.4998 10.3846L32.0001 10.4187ZM22.001 2.00155L21.9763 3.50135C21.9928 3.50162 22.0093 3.50162 22.0258 3.50135L22.001 2.00155ZM12.002 10.4187L10.5023 10.3846C10.5021 10.396 10.502 10.4074 10.502 10.4187H12.002ZM10.502 15.4685C10.502 16.297 11.1735 16.9685 12.002 16.9685C12.8304 16.9685 13.502 16.297 13.502 15.4685H10.502ZM31.9346 30.2376C32.2809 29.4851 31.9517 28.5942 31.1991 28.2479C30.4466 27.9015 29.5557 28.2308 29.2094 28.9833L31.9346 30.2376ZM28.0465 32.6253L28.9173 33.8467L28.9231 33.8425L28.0465 32.6253ZM15.899 32.5478L15.0042 33.7517L15.0111 33.7568L15.899 32.5478ZM14.8043 28.8978C14.4715 28.1392 13.5867 27.794 12.828 28.1268C12.0694 28.4596 11.7242 29.3444 12.057 30.1031L14.8043 28.8978ZM14.9304 22.0007C14.9304 21.1723 14.2588 20.5007 13.4304 20.5007C12.602 20.5007 11.9304 21.1723 11.9304 22.0007H14.9304ZM11.9304 24.5007C11.9304 25.3291 12.602 26.0007 13.4304 26.0007C14.2588 26.0007 14.9304 25.3291 14.9304 24.5007H11.9304ZM32.072 22.0007C32.072 21.1723 31.4004 20.5007 30.572 20.5007C29.7436 20.5007 29.072 21.1723 29.072 22.0007H32.072ZM29.072 24.5007C29.072 25.3291 29.7436 26.0007 30.572 26.0007C31.4004 26.0007 32.072 25.3291 32.072 24.5007H29.072ZM33.5001 15.471V10.4187H30.5001V15.471H33.5001ZM33.4998 10.3846C33.3691 4.64075 28.0249 0.402106 21.9763 0.501757L22.0258 3.50135C26.8097 3.42253 30.4156 6.71794 30.5005 10.4528L33.4998 10.3846ZM22.0258 0.501757C15.9772 0.402106 10.633 4.64075 10.5023 10.3846L13.5016 10.4528C13.5865 6.71794 17.1924 3.42253 21.9763 3.50135L22.0258 0.501757ZM10.502 10.4187V15.4685H13.502V10.4187H10.502ZM29.2094 28.9833C28.7844 29.9066 28.0906 30.7451 27.1699 31.4081L28.9231 33.8425C30.236 32.897 31.2788 31.6623 31.9346 30.2376L29.2094 28.9833ZM27.1757 31.404C24.1559 33.5571 19.7669 33.5276 16.787 31.3389L15.0111 33.7568C19.0378 36.7144 24.8454 36.7499 28.9173 33.8467L27.1757 31.404ZM16.7938 31.344C15.8874 30.6702 15.2108 29.8245 14.8043 28.8978L12.057 30.1031C12.6865 31.5379 13.7075 32.7879 15.0042 33.7517L16.7938 31.344ZM11.9304 22.0007V24.5007H14.9304V22.0007H11.9304ZM29.072 22.0007V24.5007H32.072V22.0007H29.072Z" fill="#1ABDF2"/>
</svg>
