<svg width="30" height="30" viewBox="0 0 30 30" fill="none" xmlns="http://www.w3.org/2000/svg">
<g opacity="0.8">
<path d="M26.9993 5.00342H9.49927C8.11856 5.00342 6.99927 6.12271 6.99927 7.50342V25.0034C6.99927 26.3841 8.11856 27.5034 9.49927 27.5034H26.9993C28.38 27.5034 29.4993 26.3841 29.4993 25.0034V7.50342C29.4993 6.12271 28.38 5.00342 26.9993 5.00342ZM13.8743 23.1284C13.8743 23.4736 13.5944 23.7534 13.2493 23.7534H11.3743C11.0291 23.7534 10.7493 23.4736 10.7493 23.1284V14.3784C10.7493 14.0332 11.0291 13.7534 11.3743 13.7534H13.2493C13.5944 13.7534 13.8743 14.0332 13.8743 14.3784V23.1284ZM12.3118 12.5034C11.2762 12.5034 10.4368 11.664 10.4368 10.6284C10.4368 9.59288 11.2762 8.75342 12.3118 8.75342C13.3473 8.75342 14.1868 9.59288 14.1868 10.6284C14.1868 11.664 13.3473 12.5034 12.3118 12.5034ZM25.7493 23.1284C25.7493 23.4736 25.4694 23.7534 25.1243 23.7534H23.2493C22.9041 23.7534 22.6243 23.4736 22.6243 23.1284V18.4409C22.6243 17.4054 21.7848 16.5659 20.7493 16.5659C19.7137 16.5659 18.8743 17.4054 18.8743 18.4409V23.1284C18.8743 23.4736 18.5944 23.7534 18.2493 23.7534H16.3743C16.0291 23.7534 15.7493 23.4736 15.7493 23.1284V14.3784C15.7493 14.0332 16.0291 13.7534 16.3743 13.7534H18.2493C18.5944 13.7534 18.8743 14.0332 18.8743 14.3784V15.1284C19.6346 13.9714 20.9705 13.3275 22.3493 13.4534C24.3213 13.6966 25.7898 15.3919 25.7493 17.3784V23.1284Z" fill="#1ABDF2"/>
</g>
</svg>
