<svg width="42" height="42" viewBox="0 0 42 42" fill="none" xmlns="http://www.w3.org/2000/svg">
<path d="M41 27V15C41 5 37 1 27 1H15C5 1 1 5 1 15V27C1 37 5 41 15 41H27C37 41 41 37 41 27Z" stroke="#1ABDF2" stroke-width="1.5" stroke-linecap="round" stroke-linejoin="round"/>
<path d="M2.04102 11.2202H39.961" stroke="#1ABDF2" stroke-width="1.5" stroke-linecap="round" stroke-linejoin="round"/>
<path d="M14.041 1.22021V10.9402" stroke="#1ABDF2" stroke-width="1.5" stroke-linecap="round" stroke-linejoin="round"/>
<path d="M27.959 1.22021V10.0402" stroke="#1ABDF2" stroke-width="1.5" stroke-linecap="round" stroke-linejoin="round"/>
<path d="M16.5 25.9002V23.5002C16.5 20.4202 18.68 19.1602 21.34 20.7002L23.42 21.9002L25.5 23.1002C28.16 24.6402 28.16 27.1602 25.5 28.7002L23.42 29.9002L21.34 31.1002C18.68 32.6402 16.5 31.3802 16.5 28.3002V25.9002V25.9002Z" stroke="#1ABDF2" stroke-width="1.5" stroke-miterlimit="10" stroke-linecap="round" stroke-linejoin="round"/>
</svg>
