<svg width="34" height="44" viewBox="0 0 34 44" fill="none" xmlns="http://www.w3.org/2000/svg">
<path d="M2 20.0331V29.9695C2 33.6081 2 33.6081 5.33333 35.9272L14.5 41.3852C15.876 42.2049 18.124 42.2049 19.5 41.3852L28.6667 35.9272C32 33.6081 32 33.6081 32 29.9695V20.0331C32 16.3945 32 16.3945 28.6667 14.0754L19.5 8.6174C18.124 7.7977 15.876 7.7977 14.5 8.6174L5.33333 14.0754C2 16.3945 2 16.3945 2 20.0331Z" stroke="#1ABDF2" stroke-width="3" stroke-linecap="round" stroke-linejoin="round"/>
<path d="M27.6596 13.2558V7.99777C27.6596 3.99926 25.7216 2 21.8457 2H12.1558C8.27978 2 6.3418 3.99926 6.3418 7.99777V13.1159" stroke="#1ABDF2" stroke-width="3" stroke-linecap="round" stroke-linejoin="round"/>
<path d="M18.221 19.9732L19.3256 21.7526C19.5001 22.0324 19.8877 22.3123 20.1784 22.3923L22.1551 22.9121C23.376 23.232 23.7055 24.3116 22.9109 25.3112L21.6125 26.9306C21.4187 27.1905 21.2636 27.6504 21.283 27.9702L21.3993 30.0695C21.4768 31.369 20.5853 32.0287 19.4225 31.5489L17.5233 30.7692C17.2326 30.6492 16.7481 30.6492 16.4574 30.7692L14.5582 31.5489C13.3954 32.0287 12.5039 31.349 12.5815 30.0695L12.6977 27.9702C12.7171 27.6504 12.5621 27.1705 12.3683 26.9306L11.0698 25.3112C10.2753 24.3116 10.6047 23.232 11.8256 22.9121L13.8024 22.3923C14.1125 22.3123 14.5001 22.0125 14.6551 21.7526L15.7598 19.9732C16.4574 18.8936 17.5427 18.8936 18.221 19.9732Z" stroke="#1ABDF2" stroke-width="3" stroke-linecap="round" stroke-linejoin="round"/>
</svg>
