<svg width="22" height="22" viewBox="0 0 22 22" fill="none" xmlns="http://www.w3.org/2000/svg">
<g opacity="0.8">
<path d="M11 5.90332V8.95582" stroke="white" stroke-width="1.5" stroke-miterlimit="10" stroke-linecap="round"/>
<path d="M11.018 1.83334C7.64466 1.83334 4.913 4.56501 4.913 7.93834V9.86334C4.913 10.4867 4.65633 11.4217 4.3355 11.9533L3.17133 13.8967C2.45633 15.0975 2.95133 16.4358 4.27133 16.8758C8.653 18.3333 13.3922 18.3333 17.7738 16.8758C19.0113 16.4633 19.543 15.015 18.8738 13.8967L17.7097 11.9533C17.3888 11.4217 17.1322 10.4775 17.1322 9.86334V7.93834C17.123 4.58334 14.373 1.83334 11.018 1.83334Z" stroke="white" stroke-width="1.5" stroke-miterlimit="10" stroke-linecap="round"/>
<path d="M14.0523 17.2517C14.0523 18.9292 12.6773 20.3042 10.9998 20.3042C10.1656 20.3042 9.3956 19.9558 8.8456 19.4058C8.2956 18.8558 7.94727 18.0858 7.94727 17.2517" stroke="white" stroke-width="1.5" stroke-miterlimit="10"/>
</g>
</svg>
