<svg width="44" height="44" viewBox="0 0 44 44" fill="none" xmlns="http://www.w3.org/2000/svg">
<path d="M9.60444 37.3956C11.535 35.6358 14.4779 35.7758 16.173 37.6955L18.5508 40.3952C20.4578 42.5349 23.542 42.5349 25.449 40.3952L27.8268 37.6955C29.5219 35.7758 32.4648 35.6358 34.3954 37.3956C38.5861 41.1951 41.9998 39.9353 41.9998 34.6159V12.0787C42.0234 4.01975 39.8103 2 30.911 2H13.1124C4.21306 2 2 4.01975 2 12.0787V34.5959C2 39.9353 5.4373 41.1751 9.60444 37.3956Z" stroke="#1ABDF2" stroke-width="3" stroke-linecap="round" stroke-linejoin="round"/>
<path d="M14.9492 23.9973L29.0751 11.9988" stroke="#1ABDF2" stroke-width="3" stroke-linecap="round" stroke-linejoin="round"/>
<path d="M29.0617 23.9973H29.0828" stroke="#1ABDF2" stroke-width="3" stroke-linecap="round" stroke-linejoin="round"/>
<path d="M14.9357 12.9987H14.9569" stroke="#1ABDF2" stroke-width="3" stroke-linecap="round" stroke-linejoin="round"/>
</svg>
