<svg width="22" height="22" viewBox="0 0 22 22" fill="none" xmlns="http://www.w3.org/2000/svg">
<path d="M22 10.9998C22 10.3833 21.6238 9.87379 21.1357 9.79315L21 9.78203L3.42133 9.78301L9.77198 2.08077C10.1633 1.60621 10.1647 0.835146 9.77503 0.358541C9.42077 -0.0747356 8.86529 -0.115498 8.47318 0.237213L8.36082 0.354832L0.294151 10.1362C0.242563 10.1988 0.197756 10.2665 0.159725 10.338C0.148985 10.3595 0.13805 10.3815 0.127686 10.404C0.118151 10.4232 0.109535 10.4432 0.101406 10.4634C0.0901184 10.4928 0.0790882 10.5232 0.0690727 10.5542C0.060936 10.5781 0.054142 10.6013 0.047945 10.6248C0.0405769 10.6538 0.0334187 10.6848 0.0272617 10.7162C0.0226841 10.7382 0.0190582 10.7593 0.0158958 10.7805C0.0114498 10.812 0.00766373 10.8447 0.00496292 10.8777C0.00263214 10.9029 0.00122833 10.9279 0.000452042 10.9529C0.00025177 10.968 0 10.9839 0 10.9998L0.000499725 11.047C0.00126648 11.0709 0.00260735 11.0948 0.00452423 11.1186L0 10.9998C0 11.0767 0.00584412 11.1519 0.0170231 11.2248C0.0196152 11.2422 0.0227051 11.2601 0.026125 11.2779C0.0332279 11.3145 0.0414371 11.3498 0.05089 11.3844C0.0555286 11.4016 0.0609341 11.42 0.0667114 11.4382C0.0783958 11.4749 0.0910988 11.5098 0.105072 11.5438C0.111563 11.5598 0.118834 11.5766 0.126446 11.5932C0.138943 11.6202 0.151817 11.6459 0.16543 11.671C0.175035 11.6887 0.185671 11.7072 0.196777 11.7253L0.205431 11.7394C0.232372 11.7822 0.2616 11.8228 0.292892 11.861L0.294092 11.8621L8.36076 21.6451C8.75209 22.1197 9.38525 22.1181 9.77497 21.6415C10.1293 21.2083 10.1604 20.5317 9.8691 20.0556L9.77204 19.9193L3.424 12.2186L21 12.2176C21.5523 12.2176 22 11.6724 22 10.9998Z" fill="#1ABDF2"/>
</svg>
