<svg width="32" height="37" viewBox="0 0 32 37" fill="none" xmlns="http://www.w3.org/2000/svg">
<path fill-rule="evenodd" clip-rule="evenodd" d="M1.00001 17.3334V24.3334C1.00001 30.7767 5.79695 36 11.7143 36H20.2857C23.1273 36 25.8525 34.7709 27.8619 32.5829C29.8712 30.395 31 27.4276 31 24.3334V17.3334C31.0028 14.2382 29.8749 11.269 27.865 9.08036C25.8551 6.89176 23.1282 5.66359 20.2857 5.66669H11.7143C8.87181 5.66359 6.14494 6.89176 4.135 9.08036C2.12507 11.269 0.997159 14.2382 1.00001 17.3334V17.3334Z" stroke="#1ABDF2" stroke-width="1.5" stroke-linecap="round" stroke-linejoin="round"/>
<path d="M8.82031 10.3333C8.82031 10.7475 9.1561 11.0833 9.57031 11.0833C9.98453 11.0833 10.3203 10.7475 10.3203 10.3333H8.82031ZM10.3203 1C10.3203 0.585786 9.98453 0.25 9.57031 0.25C9.1561 0.25 8.82031 0.585786 8.82031 1H10.3203ZM21.6777 10.3333C21.6777 10.7475 22.0135 11.0833 22.4277 11.0833C22.8419 11.0833 23.1777 10.7475 23.1777 10.3333H21.6777ZM23.1777 1C23.1777 0.585786 22.8419 0.25 22.4277 0.25C22.0135 0.25 21.6777 0.585786 21.6777 1H23.1777ZM10.1235 21.4927C9.84337 21.1876 9.36893 21.1674 9.06385 21.4476C8.75877 21.7278 8.73858 22.2022 9.01875 22.5073L10.1235 21.4927ZM13.8569 26.6666L13.3045 27.174C13.4465 27.3286 13.6469 27.4166 13.8569 27.4166C14.0669 27.4166 14.2672 27.3286 14.4093 27.174L13.8569 26.6666ZM22.9807 17.8406C23.2609 17.5355 23.2407 17.0611 22.9356 16.7809C22.6305 16.5007 22.1561 16.5209 21.8759 16.826L22.9807 17.8406ZM10.3203 10.3333V1H8.82031V10.3333H10.3203ZM23.1777 10.3333V1H21.6777V10.3333H23.1777ZM9.01875 22.5073L13.3045 27.174L14.4093 26.1593L10.1235 21.4927L9.01875 22.5073ZM14.4093 27.174L22.9807 17.8406L21.8759 16.826L13.3045 26.1593L14.4093 27.174Z" fill="#1ABDF2"/>
</svg>
