<svg width="42" height="42" viewBox="0 0 42 42" fill="none" xmlns="http://www.w3.org/2000/svg">
<path d="M21.75 17C21.75 16.5858 21.4142 16.25 21 16.25C20.5858 16.25 20.25 16.5858 20.25 17H21.75ZM21 41H20.25C20.25 41.2644 20.3893 41.5093 20.6165 41.6445C20.8438 41.7797 21.1254 41.7853 21.3578 41.6591L21 41ZM35.7368 33L36.0947 33.6591C36.3363 33.5279 36.4868 33.275 36.4868 33H35.7368ZM36.4868 16.3686C36.4868 15.9544 36.1511 15.6186 35.7368 15.6186C35.3226 15.6186 34.9868 15.9544 34.9868 16.3686H36.4868ZM21.5385 16.4779C21.2501 16.1805 20.7753 16.1732 20.4779 16.4615C20.1805 16.7499 20.1732 17.2247 20.4615 17.5221L21.5385 16.4779ZM26.2632 22.4286L25.7247 22.9506C25.9729 23.2066 26.367 23.2525 26.6673 23.0604L26.2632 22.4286ZM36.141 17.0004C36.4899 16.7772 36.5918 16.3134 36.3686 15.9644C36.1454 15.6155 35.6816 15.5136 35.3327 15.7368L36.141 17.0004ZM20.6422 16.3408C20.2781 16.5384 20.1432 16.9938 20.3409 17.3578C20.5385 17.7218 20.9938 17.8567 21.3578 17.6591L20.6422 16.3408ZM36.0947 9.65911C36.4587 9.46149 36.5936 9.00618 36.396 8.64215C36.1984 8.27811 35.7431 8.14321 35.379 8.34083L36.0947 9.65911ZM35.379 9.65914C35.7431 9.85676 36.1984 9.72185 36.396 9.35782C36.5936 8.99379 36.4587 8.53848 36.0947 8.34086L35.379 9.65914ZM21.3578 0.34086C20.9938 0.143242 20.5385 0.278148 20.3409 0.642181C20.1432 1.00621 20.2781 1.46152 20.6422 1.65914L21.3578 0.34086ZM36.1911 8.40284C35.8613 8.15221 35.3908 8.21637 35.1402 8.54615C34.8895 8.87593 34.9537 9.34645 35.2835 9.59709L36.1911 8.40284ZM41.0005 13L41.4048 13.6317C41.6111 13.4996 41.74 13.275 41.7499 13.0302C41.7597 12.7853 41.6494 12.5511 41.4543 12.4028L41.0005 13ZM35.333 15.7368C34.9841 15.9601 34.8823 16.424 35.1056 16.7728C35.3289 17.1217 35.7927 17.2235 36.1416 17.0002L35.333 15.7368ZM5.90488 8.34086C5.54084 8.53848 5.40594 8.99379 5.60356 9.35782C5.80117 9.72185 6.25648 9.85676 6.62051 9.65914L5.90488 8.34086ZM21.3574 1.65914C21.7214 1.46152 21.8563 1.00621 21.6587 0.642181C21.4611 0.278148 21.0058 0.143242 20.6417 0.34086L21.3574 1.65914ZM6.71697 9.59709C7.04675 9.34645 7.11091 8.87593 6.86028 8.54615C6.60965 8.21637 6.13913 8.15221 5.80935 8.40284L6.71697 9.59709ZM1 13L0.546188 12.4028C0.351101 12.5511 0.240744 12.7853 0.250608 13.0302C0.260472 13.275 0.389315 13.4996 0.595697 13.6317L1 13ZM5.85886 17.0002C6.20773 17.2235 6.67156 17.1217 6.89485 16.7728C7.11814 16.424 7.01634 15.9601 6.66746 15.7368L5.85886 17.0002ZM6.62051 8.34083C6.25648 8.14321 5.80117 8.27811 5.60356 8.64215C5.40594 9.00618 5.54084 9.46149 5.90488 9.65911L6.62051 8.34083ZM20.6417 17.6591C21.0058 17.8567 21.4611 17.7218 21.6587 17.3578C21.8563 16.9938 21.7214 16.5384 21.3574 16.3408L20.6417 17.6591ZM21.7495 17C21.7495 16.5858 21.4138 16.25 20.9995 16.25C20.5853 16.25 20.2495 16.5858 20.2495 17H21.7495ZM20.9995 41L20.6417 41.6591C20.8741 41.7853 21.1558 41.7797 21.383 41.6445C21.6103 41.5093 21.7495 41.2644 21.7495 41H20.9995ZM6.2627 33H5.5127C5.5127 33.275 5.66319 33.5279 5.90488 33.6591L6.2627 33ZM7.0127 16.3686C7.0127 15.9544 6.67691 15.6186 6.2627 15.6186C5.84848 15.6186 5.5127 15.9544 5.5127 16.3686H7.0127ZM21.538 17.5221C21.8263 17.2247 21.819 16.7499 21.5216 16.4615C21.2242 16.1732 20.7494 16.1805 20.4611 16.4779L21.538 17.5221ZM15.7364 22.4286L15.3322 23.0604C15.6326 23.2525 16.0267 23.2066 16.2748 22.9506L15.7364 22.4286ZM6.66684 15.7368C6.3179 15.5136 5.8541 15.6155 5.6309 15.9644C5.4077 16.3134 5.50962 16.7772 5.85855 17.0004L6.66684 15.7368ZM20.25 17V41H21.75V17H20.25ZM21.3578 41.6591L36.0947 33.6591L35.379 32.3409L20.6422 40.3409L21.3578 41.6591ZM36.4868 33V16.3686H34.9868V33H36.4868ZM20.4615 17.5221L25.7247 22.9506L26.8016 21.9065L21.5385 16.4779L20.4615 17.5221ZM26.6673 23.0604L36.141 17.0004L35.3327 15.7368L25.859 21.7968L26.6673 23.0604ZM21.3578 17.6591L36.0947 9.65911L35.379 8.34083L20.6422 16.3408L21.3578 17.6591ZM36.0947 8.34086L21.3578 0.34086L20.6422 1.65914L35.379 9.65914L36.0947 8.34086ZM35.2835 9.59709L40.5466 13.5971L41.4543 12.4028L36.1911 8.40284L35.2835 9.59709ZM40.5962 12.3683L35.333 15.7368L36.1416 17.0002L41.4048 13.6317L40.5962 12.3683ZM6.62051 9.65914L21.3574 1.65914L20.6417 0.34086L5.90488 8.34086L6.62051 9.65914ZM5.80935 8.40284L0.546188 12.4028L1.45381 13.5971L6.71697 9.59709L5.80935 8.40284ZM0.595697 13.6317L5.85886 17.0002L6.66746 15.7368L1.4043 12.3683L0.595697 13.6317ZM5.90488 9.65911L20.6417 17.6591L21.3574 16.3408L6.62051 8.34083L5.90488 9.65911ZM20.2495 17V41H21.7495V17H20.2495ZM21.3574 40.3409L6.62051 32.3409L5.90488 33.6591L20.6417 41.6591L21.3574 40.3409ZM7.0127 33V16.3686H5.5127V33H7.0127ZM20.4611 16.4779L15.1979 21.9065L16.2748 22.9506L21.538 17.5221L20.4611 16.4779ZM16.1405 21.7968L6.66684 15.7368L5.85855 17.0004L15.3322 23.0604L16.1405 21.7968Z" fill="#1ABDF2"/>
</svg>
