<svg width="42" height="42" viewBox="0 0 42 42" fill="none" xmlns="http://www.w3.org/2000/svg">
<path d="M24.4553 3.88836L27.9749 10.9857C28.4548 11.9737 29.7347 12.9214 30.8146 13.1029L37.1939 14.1715C41.2734 14.8571 42.2333 17.8412 39.2936 20.785L34.3342 25.7854C33.4943 26.6323 33.0343 28.2655 33.2943 29.4349L34.7141 35.625C35.834 40.5246 33.2543 42.4199 28.9548 39.8592L22.9754 36.2904C21.8956 35.6452 20.1158 35.6452 19.0159 36.2904L13.0365 39.8592C8.75701 42.4199 6.15729 40.5045 7.27717 35.625L8.69701 29.4349C8.95699 28.2655 8.49704 26.6323 7.65713 25.7854L2.69768 20.785C-0.222 17.8412 0.717897 14.8571 4.79745 14.1715L11.1767 13.1029C12.2366 12.9214 13.5165 11.9737 13.9964 10.9857L17.516 3.88836C19.4358 0.0372146 22.5555 0.0372146 24.4553 3.88836Z" stroke="#1ABDF2" stroke-width="1.5" stroke-linecap="round" stroke-linejoin="round"/>
</svg>
