<svg width="30" height="30" viewBox="0 0 30 30" fill="none" xmlns="http://www.w3.org/2000/svg">
<g opacity="0.7">
<path d="M5.32026 20.7419C3.92443 18.3869 3.43618 15.6034 3.94718 12.914C4.45819 10.2245 5.9333 7.81404 8.09559 6.13511C10.2579 4.45617 12.9586 3.62423 15.6909 3.79546C18.4231 3.96668 20.9988 5.12931 22.9346 7.06507C24.8704 9.00083 26.033 11.5766 26.2042 14.3088C26.3754 17.041 25.5435 19.7418 23.8646 21.9041C22.1856 24.0664 19.7752 25.5415 17.0857 26.0525C14.3963 26.5635 11.6128 26.0752 9.25776 24.6794V24.6794L5.36714 25.781C5.20774 25.8276 5.03873 25.8305 4.87783 25.7893C4.71693 25.7482 4.57007 25.6645 4.45263 25.547C4.33519 25.4296 4.25151 25.2827 4.21035 25.1218C4.1692 24.9609 4.17208 24.7919 4.2187 24.6325L5.32026 20.7419Z" stroke="#1ABDF2" stroke-width="2" stroke-linecap="round" stroke-linejoin="round"/>
<path d="M17.8241 21.5625C16.5906 21.5656 15.3686 21.3249 14.2283 20.8543C13.0881 20.3837 12.0521 19.6924 11.1798 18.8201C10.3076 17.9479 9.61626 16.9118 9.14563 15.7716C8.675 14.6314 8.43432 13.4094 8.43741 12.1758C8.44051 11.3076 8.78758 10.476 9.4026 9.86318C10.0176 9.25036 10.8504 8.90627 11.7187 8.90628V8.90628C11.8619 8.90513 12.0028 8.94262 12.1265 9.0148C12.2503 9.08698 12.3523 9.19118 12.4218 9.31643L13.7929 11.7071C13.8744 11.8524 13.9163 12.0166 13.9142 12.1832C13.9121 12.3499 13.8663 12.513 13.7812 12.6563L12.6796 14.4961C13.2438 15.7513 14.2486 16.7561 15.5038 17.3203L17.3437 16.2188C17.4869 16.1337 17.6501 16.0878 17.8167 16.0857C17.9833 16.0837 18.1476 16.1255 18.2929 16.2071L20.6835 17.5782C20.8088 17.6477 20.913 17.7497 20.9851 17.8734C21.0573 17.9971 21.0948 18.138 21.0937 18.2813C21.0906 19.1485 20.7455 19.9796 20.1334 20.594C19.5212 21.2083 18.6914 21.5564 17.8241 21.5625V21.5625Z" stroke="#1ABDF2" stroke-width="2" stroke-linecap="round" stroke-linejoin="round"/>
</g>
</svg>
